<svg version="1.2" xmlns="http://www.w3.org/2000/svg" viewBox="0 0 470 400" width="470" height="400"><defs><clipPath clipPathUnits="userSpaceOnUse" id="cp1"><path d=""/></clipPath><clipPath clipPathUnits="userSpaceOnUse" id="cp2"><path d="m193.45 228.38c-8 24-29.67 40.83-54.91 42.63-25.23 1.8-49.07-11.78-60.39-34.41-11.32-22.63-7.89-49.85 8.69-68.97 16.57-19.11 43.03-26.36 67.03-18.36 7.8 2.59 15 6.7 21.21 12.08 6.2 5.38 11.29 11.93 14.96 19.28 3.68 7.34 5.87 15.34 6.45 23.54 0.59 8.19-0.45 16.42-3.04 24.21z"/></clipPath><clipPath clipPathUnits="userSpaceOnUse" id="cp3"><path d="m69.02 277.54c-8 24.01-29.67 40.83-54.91 42.62-25.24 1.8-49.07-11.79-60.39-34.42-11.32-22.63-7.88-49.85 8.69-68.96 16.58-19.12 43.04-26.36 67.05-18.36 7.79 2.6 14.99 6.71 21.2 12.09 6.2 5.38 11.29 11.93 14.96 19.28 3.68 7.35 5.87 15.34 6.45 23.54 0.58 8.19-0.46 16.42-3.05 24.21z"/></clipPath></defs><style>.a{fill:#7d8b4c}.b{fill:#f4f2ab}.c{fill:#f4e096}.d{fill:#e0cc7f}.e{fill:#bd9750}.f{fill:#faef9a}.g{fill:#e4c671}.h{fill:#f0da94}.i{fill:#feeba5}.j{fill:#f9e596}.k{fill:#686e2d}.l{fill:#aa9e51}.m{fill:#8e904b}.n{fill:#9aa4ab}.o{fill:#f3f3f3}.p{fill:#e5e1ea}.q{fill:#c0b8c6}.r{fill:#aea5b4}.s{fill:#d4ceda}.t{fill:#d1d1d5}.u{fill:#e3e2e4}.v{fill:#bfbdc2}.w{fill:#aba5af}.x{fill:#71737d}.y{fill:#c1c4d3}.z{fill:#878492}.A{fill:#7f8195}.B{fill:#9ba6b4}.C{fill:#a19eaf}.D{fill:#6f7688}.E{fill:#e1e0e8}.F{fill:#efedf4}.G{fill:#cccad6}.H{fill:#b6b4c2}.I{fill:#9598ab}.J{fill:#caccd8}.K{fill:#aeb0bf}.L{fill:#bfaec5}.M{fill:#efedef}.N{fill:#d7d2de}.O{fill:#e8e3ea}.P{fill:#c2b7cc}.Q{fill:#b19db7}.R{mix-blend-mode:multiply;fill:#fff}.S{mix-blend-mode:screen;fill:none}.T{fill:#7a8691}.U{fill:#e2eaee}.V{fill:#c9d1d6}.W{fill:#8e99a3}.X{fill:#a8b4bb}.Y{fill:#b8ccd6}.Z{fill:#7b94a5}.a0{fill:#96afbd}</style><g style="opacity:.7"><path fill-rule="evenodd" class="a" d="m270.8 63.3q0 0.1-0.1 0.3 0 0.1-0.1 0.3-0.1 0.1-0.2 0.3c-0.3 0.7-0.8 1.8-1.5 3.2q-0.9 1.5-1.8 2.9-0.9 1.4-1.9 2.7-1 1.4-2 2.7-1 1.3-2.1 2.6c-6.9 9-17.7 20.3-29.9 32.4-12.2 12.1-22.8 23.4-29.7 32.3-3.5 4.4-6.1 8.2-7.8 10.7q-1.8 3.4-3.4 6.6-1 2.1-1.9 4.2-1 2.1-1.9 4.2-0.9 2.2-1.7 4.3-0.8 2.2-1.6 4.4-0.6 1.9-1.2 3.8-0.6 1.9-1.2 3.8-0.5 2-1 3.9-0.5 2-0.9 3.9-0.4 1.6-0.7 3.3-0.4 1.6-0.6 3.3-0.3 1.6-0.5 3.2-0.3 1.7-0.4 3.4c0 2.8-0.1 5.9 0 9.2 0 5.3 0 11-0.3 17.1q-0.1 2.2-0.2 4.3-0.2 2.2-0.4 4.3-0.2 2.1-0.5 4.3-0.3 2.1-0.6 4.2l-0.1 0.7q-0.3 2.2-0.6 4.3-0.2 1.5-0.5 2.9-0.3 1.5-0.6 2.9-0.3 1.5-0.7 2.9-0.4 1.4-0.8 2.9-0.3 0.8-0.6 1.7-0.4 0.9-0.7 1.8-0.4 0.8-0.7 1.7-0.4 0.9-0.8 1.7-0.1 0.3-0.3 0.6-0.1 0.3-0.3 0.6-0.2 0.3-0.3 0.6-0.2 0.2-0.4 0.5 0.2-0.5 0.3-1 0.2-0.4 0.3-0.9c-0.5 1.2-0.9 1.8-1 1.8-0.2-0.1 1.3-4.8 3.2-12.4l0.5-2.1q-0.7 2.2-1.2 4c-2 5.8-3.3 9.4-3.6 9.3-0.2-0.1 0.6-3.7 2.1-9.7 0.8-2.9 1.7-6.4 2.8-10.3q0.4-1.5 0.8-3.1 0.5-1.6 0.8-3.2 0.3-1.5 0.6-3.1 0.2-1.6 0.4-3.3 0.2-1.6 0.3-3.2 0.1-1.6 0.1-3.2 0-1.7 0-3.3 0-1.6-0.1-3.2c0-4 0-7.7 0.2-10.7 0-2.3 0.3-4.2 0.5-5.8q0 0 0 0 0 0 0 0 0-0.1 0-0.1 0 0 0 0 0.1-6.6 0.3-13.8c0.3-7.6 0.6-15.7 1.1-24q0.2-3.6 0.5-7.3l-0.1-0.7c-0.9-5.9-2.3-12.1-4-18.8-1.5-6.5-3.1-12.9-4.1-18.7q-0.4-1.9-0.7-3.9-0.3-1.9-0.5-3.9-0.2-2-0.3-3.9-0.1-2-0.2-4 0-1.3 0-2.7 0-1.3 0.1-2.6 0.1-1.3 0.3-2.7 0.2-1.3 0.4-2.6c0.5-2.5 0.9-3.9 1-3.8 0.3 0.1-0.8 5.5-0.3 14.3q0.1 2 0.3 3.9 0.2 1.9 0.5 3.9 0.2 1.9 0.6 3.8 0.3 2 0.7 3.9c1.1 5.7 2.7 12 4.3 18.6 1 4.3 2 8.5 2.7 12.7q0.5-5.6 1.2-11.3c1.1-8.8 2.5-17.4 4.1-25.6 1.7-8.2 3.7-16.1 5.9-23.4q1.5-4.9 3.1-9.8 1.7-4.8 3.5-9.6 1.9-4.7 3.9-9.4 2-4.7 4.3-9.3c4.8-10.5 9.1-18.8 12.1-24.6 2.7-5 4.3-8 4.7-8.7-0.3 0.6-1.9 3.8-4.3 8.9-2.8 5.8-7 14.3-11.7 24.8q-2 4.7-4 9.4-1.9 4.7-3.6 9.4-1.7 4.8-3.3 9.6-1.6 4.8-3 9.7c-2.1 7.4-4 15.2-5.6 23.4-1.6 8.1-2.9 16.7-4 25.4q-1.3 10.3-2 20.2 0.1 1.6 0.2 3.2 0.1 1.6 0.1 3.2 0.1 1.6 0 3.3 0 1.6-0.1 3.2-0.1 1.1-0.3 2.1-0.1 1.1-0.3 2.2-0.1 1.1-0.3 2.1-0.2 1.1-0.5 2.1 0 0.9-0.1 2 0 1.5-0.1 3.5l0.6-2.9q0.4-2 0.9-4 0.4-1.9 1-3.9 0.5-2 1.1-3.9 0.6-2 1.3-3.9 0.7-2.2 1.5-4.4 0.8-2.2 1.7-4.4 0.9-2.1 1.8-4.3 0.9-2.1 1.9-4.2c2.8-6 6-12.1 9.7-18.3 3.5-6.1 7.6-12.2 11.9-18.5 8.5-12.5 17.2-24 24.7-34.7 3.8-5.3 7.3-10.5 10.5-15.4 3.1-4.8 5.9-9.5 8.4-13.8q0.9-1.4 1.6-2.9 0.8-1.4 1.5-2.9 0.7-1.5 1.4-3 0.6-1.5 1.2-3.1 0.5-1.1 0.9-2.3 0.4-1.2 0.7-2.5 0.3-1.2 0.5-2.4 0.2-1.3 0.4-2.5 0.1-0.8 0.1-1.6 0.1-0.8 0.1-1.6 0-0.8-0.1-1.6 0-0.7-0.1-1.5 0 0 0 0 0.2 0.8 0.3 1.6 0.1 0.8 0.1 1.6 0 0.8 0 1.6 0 0.8-0.1 1.5-0.1 1.3-0.3 2.6-0.2 1.2-0.5 2.5-0.2 1.2-0.6 2.4-0.3 1.2-0.7 2.4-0.6 1.6-1.2 3.2-0.6 1.6-1.3 3.1-0.7 1.5-1.4 3-0.8 1.5-1.6 3c-2.4 4.3-5.1 9.1-8.1 14-3.2 5-6.6 10.2-10.2 15.5-7.4 10.9-16 22.5-24.5 35-4.2 6.1-8.3 12.3-11.9 18.4l-1 1.6q0.2-0.3 0.4-0.5 0.2-0.2 0.3-0.4 0.2-0.2 0.3-0.5 0.2-0.2 0.3-0.4c6.7-9.3 17.3-20.7 29.4-32.8 12.2-12.2 23.3-23.1 30.6-31.7q1.1-1.2 2.2-2.4 1.1-1.3 2.1-2.6 1.1-1.3 2-2.6 1-1.4 1.9-2.7 0.3-0.4 0.5-0.8 0.3-0.4 0.5-0.8 0.3-0.4 0.5-0.8 0.2-0.4 0.4-0.8l0.6-1.1q-0.1 0.1-0.2 0.3zm-9.2-34.5q0 0.2 0.4 2 0 0.1 0 0.1-0.4-1.9-0.4-2.1zm-93.1 243.2l0.3-0.8q-0.3 0.5-0.4 1-0.2 0.5-0.4 1-0.1 0.1-0.1 0.1 0.3-0.5 0.6-1.3zm8.8-91.5q0 0.1 0 0.2 0 0.1 0 0.1zm0 0.3l-0.4 5.6q0.3-2.3 0.4-5.1 0-0.1 0-0.2 0-0.1 0-0.2 0-0.1 0-0.1z"/><path class="b" d="m261.7 19.1q0 0.8-0.1 1.6-0.1 0.9-0.2 1.7-0.1 0.8-0.3 1.7-0.3 0.8-0.5 1.6c-0.8-3-2.1-5.9-4-7.7l-0.2-1.2c0.3-3.5 2.5-5.2 3.9-5.2 1.3 0.1 1.5 6.1 1.4 7.5z"/><path class="c" d="m265.2 15.4q-0.1 0.7-0.2 1.3-0.2 0.7-0.3 1.3-0.2 0.7-0.3 1.3-0.2 0.6-0.4 1.3-0.4 0.8-0.7 1.6-0.3 0.8-0.6 1.7-0.3 0.8-0.5 1.7-0.2 0.8-0.4 1.7 0 0.3-0.1 0.7 0 0.3 0 0.6-0.1 0.3-0.1 0.6 0 0.4 0 0.7 0 0-0.1 0.1 0 0 0 0 0 0.1 0 0.1 0 0.1 0 0.1l-0.1-1.1q-0.4-1.7-0.8-3.4 0.2-0.8 0.5-1.6 0.2-0.9 0.3-1.7 0.1-0.8 0.2-1.7 0.1-0.8 0.1-1.6c0.1-1.4-0.1-7.4-1.4-7.5-1.4 0-3.6 1.7-3.9 5.2q-0.1-0.7-0.2-1.4-0.1-0.7-0.2-1.4 0-0.6-0.1-1.3 0-0.7 0-1.4 0-0.2 0-0.5 0-0.2 0.1-0.4 0-0.3 0-0.5 0-0.2 0.1-0.4c0.8-3.1 2-6.2 5.4-6.1 3.1 0.1 3.7 7.6 3.7 12z"/><path class="d" d="m265.8 10.5q0 0.6-0.1 1.2 0 0.7-0.1 1.3-0.1 0.6-0.2 1.2-0.1 0.6-0.2 1.2c0-4.4-0.6-11.9-3.7-12-3.4-0.1-4.6 3-5.4 6.1 0.8-6.1 4.7-9.7 6.3-9.6 1.1 0 3.6 4.8 3.4 10.6z"/><path class="e" d="m269 14.4q-0.3 0-0.6 0-0.3 0-0.5 0.1-0.3 0.1-0.6 0.2-0.2 0.1-0.4 0.3c3.1-4.9 6.5-6.8 6.2 0.6q-0.1 1.3-0.3 2.6-0.2 1.3-0.5 2.5-0.4 1.2-0.9 2.4-0.5 1.2-1.2 2.3 0.3-0.9 0.4-1.9 0.2-1 0.4-2 0.1-1 0.3-2 0.1-1 0.1-2c0.1-1.9-0.5-3.1-2.4-3.1z"/><path class="f" d="m269.5 22.4q-0.1 0.9-0.2 1.8-0.2 0.9-0.4 1.8-0.2 0.8-0.4 1.7-0.3 0.9-0.6 1.7c-1.6 2.3-3.4 4.5-5.2 6.7-0.3-1.2-0.5-2.5-0.8-3.8q0-0.1 0-0.2 0-0.1 0-0.2 0-0.1 0-0.2 0-0.1 0-0.2c0.3-7.3 5-10.6 7-10.6 0.5 0 0.6 1 0.6 1.5z"/><path class="g" d="m271.4 17.5q0 1-0.1 2-0.2 1-0.3 2-0.2 1-0.4 2-0.1 1-0.4 1.9-0.2 0.6-0.5 1.1-0.3 0.5-0.6 1-0.3 0.5-0.6 0.9-0.3 0.5-0.6 1 0.3-0.8 0.6-1.7 0.2-0.9 0.4-1.7 0.2-0.9 0.4-1.8 0.1-0.9 0.2-1.8c0-0.5-0.1-1.5-0.6-1.5-2 0-6.7 3.3-7 10.7q0 0 0 0.1 0 0.1 0 0.2 0 0.1 0 0.2 0 0.1 0 0.2l-0.1-0.7q0-0.2 0-0.4-0.1-0.2-0.1-0.3 0-0.2-0.1-0.4 0-0.1-0.1-0.3 0 0 0-0.1 0 0 0-0.1 0 0 0 0 0.1-0.1 0.1-0.1 0-0.3 0-0.7 0-0.3 0.1-0.6 0-0.3 0-0.6 0.1-0.4 0.1-0.7 0.2-0.9 0.4-1.7 0.2-0.9 0.5-1.7 0.3-0.9 0.6-1.7 0.3-0.8 0.7-1.6 0.3-0.8 0.6-1.5 0.3-0.7 0.7-1.4 0.4-0.7 0.8-1.4 0.3-0.6 0.8-1.3 0.2-0.2 0.4-0.3 0.3-0.1 0.6-0.2 0.2-0.1 0.5-0.1 0.3 0 0.6 0c1.9 0 2.5 1.2 2.4 3.1z"/><path class="h" d="m250.2 21.3c-0.1 2.1 0.7 5.1 2.7 8.4-3.4-4.2-5.3-9-5.2-12.4 0.1-1.6 1.5-1.6 3.2-1.6q0.8 0 1.6 0.2 0.7 0.1 1.5 0.4 0.7 0.3 1.3 0.7 0.7 0.4 1.3 1 0.1 0.1 0.3 0.3 0.1 0.1 0.3 0.3 0.1 0.1 0.2 0.3 0.1 0.2 0.3 0.3-0.5-0.4-1-0.8-0.5-0.3-1.1-0.6-0.5-0.2-1.1-0.3-0.6-0.2-1.2-0.2c-1.8 0-3.1 2.1-3.1 4z"/><path class="i" d="m258.6 34.8q-1.1-0.7-2.1-1.5-1-0.8-1.9-1.7-0.9-0.9-1.7-1.9c-2-3.3-2.8-6.3-2.7-8.4 0-1.9 1.3-4 3.1-4q0.6 0 1.2 0.2 0.6 0.1 1.1 0.3 0.6 0.3 1.1 0.6 0.5 0.4 1 0.8c1.9 2.6 3 6.3 3.7 9.9l0.1 1.1q0.1 0.2 0.1 0.3 0.1 0.2 0.1 0.4 0 0.1 0.1 0.3 0 0.2 0 0.4c0.3 1.5 0.5 3 0.9 4.5q0 0 0 0 0 0 0 0.1-0.1 0-0.1 0 0 0 0 0c-1.1-3.4-4.7-12.1-6.1-12.1-1 0-1.3 1.3-1.3 2.3-0.1 4 2.6 7.2 5.5 9.8q-1.1-0.7-2.1-1.4z"/><path class="j" d="m262.6 36.2l-0.5 0.6q-0.7-0.3-1.4-0.6c-2.9-2.6-5.6-5.8-5.5-9.8 0-1 0.3-2.3 1.3-2.3 1.4 0 5 8.7 6.1 12.1z"/><path class="k" d="m262.6 35.7q0.4-0.2 0.8-0.4 0.4-0.2 0.7-0.5 0.3-0.3 0.6-0.6 0 0.3-0.1 0.6-0.1 0.3-0.2 0.7-0.1 0.3-0.3 0.6-0.1 0.2-0.3 0.5l-0.5 0.3q-0.3 0.1-0.5 0.1 0 0-0.1-0.1 0 0 0 0-0.1 0-0.1 0 0 0 0 0-0.4 0.1-0.7 0.1-0.1 0-0.2 0 0 0-0.1 0-0.1-0.1-0.1-0.1-0.1 0-0.2 0-0.2-0.1-0.4-0.1-0.3-0.1-0.5-0.2-0.3 0-0.5-0.1-0.2-0.1-0.5-0.3-0.2-0.5-0.5-0.9-0.3-0.5-0.7-0.9-0.4-0.4-0.8-0.7-0.4-0.3-0.9-0.6 0.2 0 0.4 0 0.4 0 0.9 0.2 0.4 0.1 0.8 0.4 0.4 0.2 0.8 0.5 0.3 0.4 0.6 0.8 0-0.2 0-0.3 0-0.1 0-0.2 0.1-0.1 0.1-0.2 0-0.2-0.1-0.3 0.1-0.2 0.1-0.4 0-0.2 0-0.4-0.1-0.2-0.1-0.4 0-0.2-0.1-0.4 0.3 0.4 0.5 0.7 0.2 0.4 0.4 0.8 0.1 0.4 0.2 0.8 0.1 0.4 0.2 0.8 0.1-0.2 0.2-0.4 0.2-0.2 0.3-0.4 0.1-0.2 0.2-0.4 0.1-0.2 0.2-0.5l0.1 0.6q0 0.2-0.1 0.4 0 0.2 0 0.4-0.1 0.2-0.2 0.3 0 0.2-0.1 0.4 0.4-0.1 0.8-0.2z"/><path class="l" d="m264.1 29.1c-0.1 1.1-0.9 3.3-2 3.4q0 0 0 0-0.1 0-0.1 0 0 0-0.1 0 0 0 0 0 0 0-0.1 0 0-0.4-0.1-0.7-0.1-0.3-0.2-0.6-0.1-0.3-0.3-0.6-0.2-0.3-0.4-0.5-0.1-0.3-0.3-0.6-0.2-0.3-0.4-0.6-0.2-0.3-0.4-0.6-0.2-0.3-0.4-0.5 0.1 0.2 0.1 0.4 0.1 0.2 0.1 0.4 0.1 0.2 0.1 0.4 0 0.2 0 0.5 0 0.1 0 0.3-0.1 0.1-0.1 0.3 0 0.2-0.1 0.3-0.1 0.2-0.1 0.3l0.1-0.6c0.1-1.6-1.4-3.5-2.5-4.8 2.9 0.7 5.7 3.2 5.5 6.4l0.1 0.2q0.2-0.4 0.5-0.8 0.2-0.4 0.4-0.9 0.2-0.4 0.4-0.8 0.1-0.5 0.2-1z"/><path class="m" d="m269.1 29.5c-2.6 2-2.9 5.6-5.3 7.1q0.2-0.3 0.3-0.5 0.2-0.3 0.3-0.6 0.1-0.4 0.2-0.7 0.1-0.3 0.1-0.6-0.3 0.3-0.6 0.6-0.3 0.3-0.7 0.5-0.4 0.2-0.8 0.4-0.4 0.1-0.8 0.2 0.1-0.2 0.1-0.4 0.1-0.1 0.2-0.3 0-0.2 0-0.4 0.1-0.2 0.1-0.4l-0.1-0.6q-0.1 0.3-0.2 0.5-0.1 0.2-0.2 0.4-0.1 0.2-0.3 0.4-0.1 0.2-0.2 0.4-0.1-0.4-0.2-0.8-0.1-0.4-0.2-0.8-0.2-0.4-0.4-0.8-0.2-0.3-0.5-0.7 0.1 0.2 0.1 0.4 0 0.2 0.1 0.4 0 0.2 0 0.4 0 0.2-0.1 0.4 0.1 0.1 0.1 0.3 0 0.1-0.1 0.2 0 0.1 0 0.2 0 0.1 0 0.3-0.3-0.4-0.6-0.8-0.4-0.3-0.8-0.5-0.4-0.3-0.8-0.4-0.5-0.2-0.9-0.2-0.2 0-0.4 0 0.5 0.3 0.9 0.6 0.4 0.3 0.8 0.7 0.4 0.4 0.7 0.9 0.3 0.4 0.5 0.9c-2.4-1.4-3.9-4.7-7-4.7h-0.2c0.2-0.7 1.8-1.1 2.6-1 1.4 0 2.6 0.8 3.9 1.2q0.1-0.1 0.2-0.2 0.1-0.1 0.2-0.2 0.1-0.2 0.1-0.3 0.1-0.1 0.1-0.3 0-0.1 0.1-0.3 0.1-0.1 0.1-0.3 0-0.2 0.1-0.3 0-0.2 0-0.3 0-0.3 0-0.5 0-0.2-0.1-0.4 0-0.2-0.1-0.4 0-0.2-0.1-0.4 0.2 0.2 0.4 0.5 0.2 0.3 0.4 0.6 0.2 0.3 0.4 0.6 0.2 0.3 0.3 0.6 0.2 0.2 0.4 0.5 0.2 0.3 0.3 0.6 0.1 0.3 0.2 0.6 0.1 0.3 0.1 0.7 0.1 0 0.1 0 0 0 0 0 0.1 0 0.1 0 0 0 0.1 0c1.1-0.1 1.9-2.3 2-3.4l-0.1-0.7q0-0.1 0.1-0.2 0-0.1 0-0.2 0-0.1 0-0.3 0.1-0.1 0.1-0.2l-0.1-0.6q0.2 0.4 0.3 0.7 0.1 0.4 0.2 0.8 0.1 0.4 0.1 0.8 0 0.4 0 0.7 0 0.6-0.1 1-0.1 0.5-0.2 1-0.2 0.5-0.4 1-0.2 0.4-0.5 0.8c2.8-1.1 2.5-3.1 5.6-4.2z"/><path class="b" d="m282.1 63.4q-0.8 0.3-1.6 0.5-0.8 0.1-1.7 0.3-0.8 0.1-1.7 0.1-0.8 0.1-1.7 0.1c2.7-1.7 5.1-3.7 6.2-6.1q0.2-0.1 0.3-0.2 0.1-0.1 0.3-0.2 0.1-0.1 0.2-0.1 0.2-0.1 0.3-0.2c3.4-0.7 5.7 0.9 6.1 2.3 0.4 1.2-5.4 3.2-6.7 3.5z"/><path class="c" d="m286.7 65.7c-1.8 0.2-3.5 0.3-5.3 0.4q-0.9-0.1-1.8-0.2-0.9 0-1.7 0-0.9 0-1.8 0-0.9 0.1-1.8 0.1-0.3 0.1-0.6 0.1-0.3 0.1-0.7 0.2-0.3 0-0.6 0.1-0.3 0.1-0.6 0.2l-0.3 0.1 0.9-0.6q1.6-0.8 3-1.7 0.9 0 1.7-0.1 0.9 0 1.7-0.1 0.9-0.2 1.7-0.3 0.8-0.2 1.6-0.5c1.3-0.3 7.1-2.3 6.7-3.5-0.4-1.4-2.7-3-6.1-2.3q0.6-0.3 1.3-0.6 0.6-0.3 1.2-0.6 0.6-0.2 1.3-0.4 0.6-0.2 1.3-0.4l1.8-0.5c3.1-0.1 6.4 0.1 7.4 3.4 0.8 3-6.1 5.8-10.3 7.2z"/><path class="d" d="m291.5 64.8q-0.6 0.2-1.2 0.3-0.6 0.1-1.2 0.3-0.6 0.1-1.2 0.2-0.6 0.1-1.2 0.1c4.2-1.4 11.1-4.2 10.3-7.2-1-3.3-4.3-3.5-7.4-3.4 6-1 10.6 1.6 11 3.2 0.3 1.1-3.4 4.9-9.1 6.5z"/><path class="e" d="m288.9 69q-0.1-0.3-0.3-0.6-0.1-0.2-0.2-0.5-0.2-0.2-0.4-0.4-0.2-0.2-0.4-0.4c5.6 1.6 8.4 4.2 1.3 6.2q-1.3 0.3-2.5 0.5-1.3 0.1-2.6 0.2-1.3 0-2.6-0.1-1.2-0.1-2.5-0.4 1-0.1 2-0.2 1-0.1 2-0.3 1-0.1 1.9-0.3 1-0.3 2-0.5c1.9-0.5 2.7-1.4 2.3-3.2z"/><path class="f" d="m281.3 71.9q-0.9 0.2-1.8 0.3-0.9 0.2-1.8 0.2-0.9 0.1-1.8 0.1-0.9 0-1.8-0.1-1-0.3-2-0.6-1-0.3-2-0.7-0.9-0.3-1.9-0.7-1-0.4-2-0.8 0.5-0.3 0.9-0.5 0.4-0.2 0.8-0.5 0.4-0.2 0.9-0.4 0.4-0.3 0.8-0.5 0.4-0.1 0.7-0.3c7.1-2 11.7 1.4 12.3 3.4 0.1 0.5-0.8 1-1.3 1.1z"/><path class="g" d="m286.6 72.2q-1 0.2-2 0.5-0.9 0.2-1.9 0.3-1 0.2-2 0.3-1 0.1-2 0.2-0.6-0.1-1.2-0.2-0.5-0.1-1.1-0.3-0.6-0.1-1.2-0.2-0.5-0.2-1.1-0.4 0.9 0.1 1.8 0.1 0.9 0 1.8-0.1 0.9 0 1.8-0.2 0.9-0.1 1.8-0.3c0.5-0.1 1.4-0.6 1.3-1.1-0.6-2-5.2-5.4-12.3-3.4q-0.3 0.2-0.7 0.3 0.1 0 0.2-0.1 0.1 0 0.1-0.1 0.1 0 0.2-0.1 0.1 0 0.2-0.1 0.5-0.3 1.2-0.6 0.1-0.1 0.3-0.1 0.3-0.1 0.6-0.2 0.3-0.1 0.6-0.1 0.4-0.1 0.7-0.2 0.3 0 0.6-0.1 0.9 0 1.8-0.1 0.9 0 1.8 0 0.8 0 1.7 0 0.9 0.1 1.8 0.2 0.8 0 1.6 0.1 0.7 0.1 1.5 0.2 0.8 0.2 1.6 0.3 0.7 0.2 1.5 0.4 0.2 0.2 0.4 0.4 0.2 0.2 0.4 0.4 0.1 0.3 0.2 0.5 0.2 0.3 0.3 0.6c0.4 1.8-0.4 2.7-2.3 3.2z"/><path class="h" d="m276.5 53.1q-1 0.4-2 0.9-1 0.5-1.9 1.2-1 0.6-1.8 1.4-0.8 0.8-1.5 1.7c3-4.6 6.9-7.8 10.2-8.7 1.6-0.5 2 0.9 2.6 2.5q0.2 0.8 0.3 1.6 0.1 0.8 0 1.5 0 0.8-0.2 1.6-0.2 0.8-0.6 1.5-0.1 0.2-0.2 0.3 0 0.2-0.1 0.4-0.1 0.2-0.3 0.4-0.1 0.1-0.2 0.3 0.3-0.6 0.5-1.2 0.1-0.6 0.2-1.2 0-0.6 0-1.2-0.1-0.6-0.3-1.2c-0.4-1.7-2.9-2.3-4.7-1.8z"/><path class="i" d="m266.1 65.3q0.4-1.3 0.8-2.5 0.5-1.2 1.1-2.3 0.6-1.1 1.3-2.2 0.7-0.9 1.5-1.7 0.8-0.8 1.8-1.4 0.9-0.7 1.9-1.2 1-0.5 2-0.9c1.8-0.5 4.3 0.1 4.7 1.8q0.2 0.6 0.3 1.2 0 0.6 0 1.2-0.1 0.6-0.2 1.2-0.2 0.6-0.5 1.2c-1.9 2.6-5.1 4.6-8.4 6.4l-0.9 0.6q-0.7 0.3-1.2 0.6c-1.4 0.8-2.9 1.5-4.1 2.3l-0.2-0.2c3-2 10.1-7.9 9.7-9.3-0.2-1.1-1.6-0.9-2.6-0.6-3.8 1.1-6.1 4.7-7.5 8.3q0.2-1.3 0.5-2.5z"/><path class="j" d="m266 69.4q-0.1 0-0.1 0-0.1 0-0.2 0-0.1-0.1-0.2-0.1 0 0-0.1-0.1l0.2-1.4c1.4-3.6 3.7-7.2 7.5-8.3 1-0.3 2.4-0.5 2.6 0.6 0.4 1.4-6.7 7.3-9.7 9.3z"/><path class="k" d="m266.6 69.4q0.3 0.4 0.6 0.6 0.3 0.3 0.7 0.5 0.3 0.2 0.7 0.4-0.3 0.1-0.6 0.1-0.4 0-0.7 0-0.3 0-0.6-0.1-0.4 0-0.7-0.1 0-0.1-0.1-0.1 0-0.1-0.1-0.1 0-0.1-0.1-0.1 0-0.1-0.1-0.1l-0.2-0.6v-0.1q-0.1 0-0.1-0.1 0-0.1-0.1-0.2 0-0.1 0-0.2 0-0.1 0-0.1-0.1-0.1-0.1-0.2 0 0 0-0.1-0.1 0-0.1-0.1 0-0.1 0-0.1-0.1-0.3-0.1-0.5 0-0.3 0-0.6 0.1-0.2 0.1-0.5 0-0.2 0.1-0.5 0.4-0.3 0.7-0.8 0.3-0.4 0.6-0.9 0.3-0.5 0.5-1 0.2-0.5 0.3-1 0 0 0 0.1 0 0 0.1 0.1 0 0 0 0 0 0.1 0 0.1 0.1 0.4 0.1 0.9 0 0.5-0.1 0.9-0.1 0.4-0.3 0.9-0.2 0.4-0.5 0.7 0.1 0 0.2 0 0.2 0 0.3 0 0.1 0 0.2 0 0.1 0 0.2-0.1 0.2 0 0.4-0.1 0.2-0.1 0.3-0.1 0.2-0.1 0.4-0.2 0.2-0.1 0.3-0.2-0.2 0.4-0.4 0.7-0.3 0.3-0.6 0.6-0.4 0.2-0.7 0.4-0.4 0.2-0.8 0.4 0.2 0.1 0.5 0.2 0.2 0 0.4 0.1 0.3 0 0.5 0.1 0.2 0 0.5 0l-0.6 0.3q-0.2 0.1-0.3 0.1-0.2 0-0.4 0-0.2 0.1-0.4 0-0.2 0-0.4 0 0.2 0.4 0.5 0.7z"/><path class="l" d="m273.8 68.6q-0.1 0-0.2 0-0.1 0.1-0.1 0.1-0.1 0-0.2 0c-1.1 0.4-3.4 0.3-3.9-0.8v-0.2q0.3-0.1 0.6-0.3 0.3-0.2 0.5-0.4 0.3-0.3 0.5-0.5 0.2-0.3 0.4-0.5 0.2-0.3 0.5-0.5 0.2-0.2 0.4-0.5 0.2-0.3 0.4-0.6 0.2-0.3 0.3-0.6-0.1 0.2-0.3 0.3-0.2 0.1-0.3 0.2-0.2 0.1-0.4 0.2-0.2 0.1-0.4 0.1-0.2 0-0.3 0.1-0.2 0-0.3 0-0.2 0-0.4 0-0.1 0-0.3 0l0.6-0.1c1.6-0.4 3-2.4 3.8-3.9 0.2 3-1.3 6.5-4.3 7.3q-0.1 0-0.2 0 0.4 0.2 0.9 0.3 0.5 0.2 0.9 0.2 0.5 0.1 1 0.1 0.5 0 1-0.1-0.1 0.1-0.2 0.1z"/><path class="m" d="m274.5 73.7c-2.7-1.8-6.3-1-8.5-2.9q0.3 0.1 0.7 0.1 0.3 0.1 0.6 0.1 0.3 0 0.7 0 0.3 0 0.6-0.1-0.4-0.2-0.7-0.4-0.4-0.2-0.7-0.5-0.3-0.2-0.6-0.6-0.3-0.3-0.5-0.7 0.2 0 0.4 0 0.2 0.1 0.4 0 0.2 0 0.4 0 0.1 0 0.3-0.1l0.6-0.3q-0.3 0-0.5 0-0.2-0.1-0.5-0.1-0.2-0.1-0.4-0.1-0.3-0.1-0.5-0.2 0.4-0.2 0.8-0.4 0.3-0.2 0.7-0.4 0.3-0.3 0.6-0.6 0.2-0.3 0.4-0.7-0.1 0.1-0.3 0.2-0.2 0.1-0.4 0.2-0.1 0-0.3 0.1-0.2 0.1-0.4 0.1-0.1 0.1-0.2 0.1-0.1 0-0.2 0-0.1 0-0.3 0-0.1 0-0.2 0 0.3-0.3 0.5-0.7 0.2-0.5 0.3-0.9 0.1-0.4 0.1-0.9 0-0.5-0.1-0.9 0 0 0-0.1 0 0 0 0-0.1-0.1-0.1-0.1 0-0.1 0-0.1-0.1 0.5-0.3 1-0.2 0.5-0.5 1-0.3 0.5-0.6 0.9-0.3 0.5-0.7 0.8c0.6-2.8 3.2-5.2 2.4-8.2l-0.1-0.1c0.8-0.1 1.6 1.4 1.8 2.2 0.4 1.3 0 2.6-0.1 4q0.2 0.1 0.3 0.1 0.1 0.1 0.3 0.2 0.1 0 0.3 0 0.1 0 0.3 0 0.2 0 0.3 0 0.2 0 0.4 0 0.1 0 0.3 0 0.1-0.1 0.3-0.1 0.2 0 0.4-0.1 0.2-0.1 0.4-0.2 0.1-0.1 0.3-0.2 0.2-0.1 0.3-0.3-0.1 0.3-0.3 0.6-0.2 0.3-0.4 0.6-0.2 0.3-0.4 0.5-0.3 0.2-0.5 0.5-0.2 0.2-0.4 0.5-0.2 0.2-0.5 0.5-0.2 0.2-0.5 0.4-0.3 0.2-0.6 0.3v0.2c0.5 1.1 2.8 1.2 3.9 0.8q0.1 0 0.2 0 0 0 0.1-0.1 0.1 0 0.2 0 0.1 0 0.2-0.1 0.1 0 0.2 0 0.1 0 0.2-0.1 0.1 0 0.2 0 0.1-0.1 0.2-0.1 0.1 0 0.2 0 0 0 0.1-0.1 0.1 0 0.1 0 0.1 0 0.1-0.1-0.2 0.3-0.5 0.5-0.4 0.3-0.7 0.4-0.3 0.2-0.7 0.4-0.3 0.1-0.7 0.2-0.5 0.1-1 0.2-0.5 0.1-1 0.1-0.5 0-1 0-0.5-0.1-1-0.2c1.9 2.2 3.7 1.4 5.8 4z"/><path class="b" d="m232.7 85.4c1.4-0.1 3.8 1.6 4.2 5l-0.3 1.2c-1.9 1.9-3 4.8-3.7 7.8q-0.3-0.8-0.5-1.6-0.3-0.8-0.4-1.6-0.2-0.8-0.3-1.7-0.1-0.8-0.1-1.7c-0.1-1.3-0.2-7.3 1.1-7.4z"/><path class="c" d="m231.5 77.2c3.3-0.1 4.6 2.9 5.4 5.9q0.1 0.2 0.1 0.4 0.1 0.3 0.1 0.5 0.1 0.2 0.1 0.4 0 0.3 0 0.5 0 0.7 0 1.4 0 0.7-0.1 1.3 0 0.7-0.1 1.4 0 0.7-0.1 1.4c-0.4-3.4-2.8-5.1-4.2-5-1.3 0.1-1.2 6.2-1.1 7.5q0 0.8 0.1 1.6 0.1 0.9 0.3 1.7 0.1 0.8 0.4 1.6 0.2 0.8 0.5 1.6-0.1 0.5-0.2 0.9-0.1 0.4-0.2 0.8-0.1 0.5-0.2 0.9-0.1 0.4-0.2 0.9-0.1 0.6-0.2 1.1 0 0 0-0.1 0.1 0 0.1 0 0-0.1 0-0.1 0-0.1 0-0.1-0.1-0.3-0.1-0.7 0-0.3-0.1-0.6 0-0.3-0.1-0.6 0-0.4-0.1-0.7-0.2-0.9-0.4-1.7-0.2-0.9-0.5-1.7-0.3-0.9-0.6-1.7-0.4-0.8-0.8-1.6c-0.5-1.8-0.9-3.4-1.4-5.1 0-4.5 0.4-11.9 3.6-12.1z"/><path class="d" d="m230.4 73.7c1.7-0.1 5.6 3.4 6.5 9.4-0.8-3-2.1-6-5.4-5.9-3.2 0.2-3.6 7.6-3.6 12.1q-0.1-0.6-0.2-1.2-0.1-0.6-0.2-1.2-0.1-0.7-0.2-1.3 0-0.6-0.1-1.2c-0.3-5.8 2.2-10.6 3.2-10.7z"/><path class="e" d="m221.8 91.4q0.1 1 0.2 2 0.1 1 0.3 2 0.2 1 0.4 2 0.2 1 0.4 2-0.7-1.1-1.2-2.3-0.5-1.2-0.9-2.4-0.3-1.3-0.6-2.5-0.2-1.3-0.3-2.6c-0.4-7.3 2.9-5.6 6.3-0.7q-0.3-0.1-0.5-0.2-0.3-0.2-0.6-0.2-0.3-0.1-0.6-0.2-0.3 0-0.5 0c-2 0.1-2.5 1.3-2.4 3.1z"/><path class="f" d="m224.4 94.9c2.1-0.2 6.8 3.2 7.2 10.4q0 0.1 0 0.2 0 0.1 0 0.2 0 0.1 0 0.2 0 0.1 0 0.2c-0.2 1.3-0.5 2.6-0.7 3.8-1.8-2.1-3.6-4.3-5.2-6.5q-0.4-0.9-0.7-1.7-0.2-0.9-0.5-1.8-0.2-0.9-0.4-1.7-0.2-0.9-0.3-1.8c0-0.5 0.2-1.6 0.6-1.5z"/><path class="g" d="m224.2 88.3q0.2 0 0.5 0 0.3 0.1 0.6 0.2 0.3 0 0.6 0.2 0.2 0.1 0.5 0.2 0.4 0.7 0.8 1.3 0.4 0.7 0.8 1.4 0.3 0.7 0.7 1.4 0.3 0.7 0.6 1.4 0.4 0.8 0.8 1.6 0.3 0.8 0.6 1.7 0.3 0.8 0.5 1.7 0.2 0.8 0.4 1.7 0.1 0.3 0.1 0.7 0.1 0.3 0.1 0.6 0.1 0.3 0.1 0.6 0 0.4 0.1 0.7 0 0 0 0.1 0 0 0 0.1 0 0-0.1 0 0 0.1 0 0.1-0.1 0.6-0.2 1.3-0.1 0.4-0.1 0.8 0-0.1 0-0.2 0-0.1 0-0.2 0-0.1 0-0.2 0-0.1 0-0.2c-0.4-7.2-5.1-10.6-7.2-10.4-0.4-0.1-0.6 1-0.6 1.5q0.1 0.9 0.3 1.8 0.2 0.8 0.4 1.7 0.3 0.9 0.5 1.8 0.3 0.8 0.7 1.7-1.4-2-2.6-4-0.2-1-0.4-2-0.2-1-0.4-2-0.2-1-0.3-2-0.1-1-0.2-2c-0.1-1.8 0.4-3 2.4-3.1z"/><path class="h" d="m240 90.9q-0.7 0-1.3 0.2-0.6 0.1-1.1 0.4-0.6 0.2-1.1 0.6-0.5 0.3-0.9 0.8 0.5-0.7 1-1.3 0.6-0.5 1.2-1 0.7-0.4 1.4-0.7 0.7-0.3 1.5-0.5 0.8-0.2 1.5-0.2c1.8 0 3.2-0.1 3.3 1.6 0.2 3.4-1.5 8.2-4.8 12.5 1.8-3.3 2.6-6.3 2.4-8.5 0-1.9-1.4-4-3.1-3.9z"/><path class="i" d="m239 105.2q-0.9 0.9-1.9 1.8-1 0.8-2.1 1.5-1 0.7-2.2 1.3c3-2.5 5.7-5.7 5.4-9.7 0-1-0.3-2.4-1.4-2.3-1.4 0.1-4.7 8.8-5.8 12.2q0 0 0-0.1 0 0 0 0 0 0 0 0-0.1 0-0.1 0c0.3-1.5 0.6-3 0.8-4.6q0.1-0.7 0.2-1.3 0.1-0.5 0.2-1.1c0.6-3.8 1.5-7.4 3.5-10q0.4-0.5 0.9-0.8 0.5-0.4 1.1-0.6 0.5-0.3 1.1-0.4 0.6-0.2 1.3-0.2c1.7-0.1 3.1 2 3.1 3.9 0.2 2.2-0.6 5.2-2.4 8.5q-0.8 1-1.7 1.9z"/><path class="j" d="m236.8 97.8c1.1-0.1 1.4 1.3 1.4 2.3 0.3 4-2.4 7.2-5.4 9.7q-0.1 0.1-0.3 0.2-0.2 0.1-0.3 0.2-0.2 0.1-0.4 0.2-0.1 0-0.3 0.1l-0.5-0.5c1.1-3.4 4.4-12.1 5.8-12.2z"/><path class="k" d="m229.5 108.6q0.3 0.2 0.7 0.5 0.4 0.2 0.8 0.3 0.4 0.2 0.8 0.3-0.1-0.2-0.1-0.4-0.1-0.2-0.2-0.3 0-0.2-0.1-0.4 0-0.2 0-0.4 0 0 0-0.1 0-0.1 0-0.1 0-0.1 0-0.2 0 0 0-0.1 0.1 0.2 0.2 0.4 0.2 0.2 0.3 0.4 0.1 0.2 0.3 0.4 0.1 0.2 0.2 0.4 0.1-0.4 0.2-0.8 0.1-0.5 0.2-0.8 0.2-0.4 0.4-0.8 0.2-0.4 0.4-0.7 0 0.2-0.1 0.4 0 0.2 0 0.3 0 0.2 0 0.4 0 0.2 0 0.4 0 0.1 0 0.2 0 0.2 0 0.3 0.1 0.1 0.1 0.2 0 0.1 0.1 0.2 0.2-0.4 0.6-0.7 0.3-0.3 0.7-0.6 0.4-0.2 0.8-0.3 0.5-0.2 0.9-0.2 0.1-0.1 0.3-0.1-0.4 0.3-0.9 0.7-0.4 0.3-0.7 0.7-0.4 0.4-0.7 0.9-0.3 0.5-0.5 1-0.3 0.1-0.5 0.2-0.2 0.1-0.4 0.2-0.2 0.1-0.5 0.2-0.2 0.1-0.5 0.1-0.3 0.1-0.5 0.1l-0.8-0.1h-0.1q0 0-0.1 0-0.1 0-0.2 0-0.1 0-0.1 0-0.1 0-0.2 0 0 0-0.1-0.1-0.1 0-0.1 0-0.1 0-0.1-0.1-0.1 0-0.1-0.1-0.2-0.2-0.4-0.5-0.1-0.3-0.3-0.6-0.1-0.3-0.2-0.7-0.1-0.3-0.2-0.6 0.3 0.3 0.7 0.6z"/><path class="l" d="m229.4 102.8q0-0.1 0-0.2 0-0.1 0-0.2 0-0.1 0-0.2 0.1 0.5 0.3 1 0.2 0.4 0.4 0.8 0.2 0.5 0.4 0.9 0.3 0.4 0.6 0.7v-0.2c-0.2-3.1 2.4-5.7 5.5-6.4-1.2 1.2-2.6 3.2-2.5 4.8l0.1 0.7q-0.1-0.2-0.1-0.3 0-0.2-0.1-0.4 0-0.2-0.1-0.3 0-0.2 0-0.4 0-0.2 0-0.4 0-0.2 0-0.4 0-0.2 0.1-0.4 0.1-0.2 0.2-0.3-0.3 0.2-0.5 0.5-0.2 0.2-0.4 0.5-0.2 0.3-0.3 0.6-0.2 0.3-0.3 0.6-0.2 0.3-0.4 0.6-0.2 0.3-0.3 0.6-0.1 0.3-0.2 0.6-0.1 0.3-0.2 0.7h-0.2c-1.1 0-1.9-2.3-2-3.4q0 0 0-0.1z"/><path class="m" d="m230.1 107.5q-0.3-0.4-0.5-0.8-0.3-0.5-0.4-0.9-0.2-0.5-0.3-1-0.1-0.5-0.1-1-0.1-0.4-0.1-0.8 0.1-0.4 0.1-0.7 0.1-0.4 0.2-0.8 0.2-0.4 0.3-0.8 0 0.1 0 0.2 0 0.1 0 0.1 0 0.1 0 0.2 0 0.1 0 0.1l0.1 0.9q0 0.1 0 0.2 0 0.1 0 0.2 0 0.1 0 0.2 0 0.1 0 0.1c0.1 1.1 0.9 3.4 2 3.4h0.2q0.1-0.4 0.2-0.7 0.1-0.3 0.2-0.6 0.1-0.3 0.3-0.6 0.2-0.3 0.4-0.6 0.1-0.3 0.3-0.6 0.1-0.3 0.3-0.6 0.2-0.3 0.4-0.5 0.2-0.3 0.5-0.5-0.1 0.1-0.2 0.3-0.1 0.2-0.1 0.4 0 0.2 0 0.4 0 0.2 0 0.4 0 0.2 0 0.4 0.1 0.1 0.1 0.3 0.1 0.2 0.1 0.4 0 0.1 0.1 0.3 0 0.1 0.1 0.3 0 0.1 0.1 0.2 0.1 0.1 0.2 0.2 0.1 0.1 0.2 0.2c1.3-0.4 2.5-1.2 3.9-1.3 0.8 0 2.3 0.2 2.5 1q0 0 0 0 0 0 0-0.1 0 0 0 0 0 0-0.1 0c-3.1 0.3-4.5 3.4-6.9 5q0.2-0.5 0.5-1 0.3-0.5 0.7-0.9 0.3-0.4 0.7-0.7 0.5-0.4 0.9-0.7-0.2 0-0.3 0.1-0.4 0-0.9 0.2-0.4 0.1-0.8 0.3-0.4 0.3-0.7 0.6-0.4 0.3-0.6 0.7-0.1-0.1-0.1-0.2 0-0.1-0.1-0.2 0-0.1 0-0.3 0-0.1 0-0.2 0-0.2 0-0.4 0-0.2 0-0.4 0-0.1 0-0.3 0.1-0.2 0.1-0.4-0.2 0.3-0.4 0.7-0.2 0.4-0.4 0.8-0.1 0.3-0.2 0.8-0.1 0.4-0.2 0.8-0.1-0.2-0.2-0.4-0.2-0.2-0.3-0.4-0.1-0.2-0.3-0.4-0.1-0.2-0.2-0.4 0 0.1 0 0.1 0 0.1 0 0.2 0 0 0 0.1 0 0.1 0 0.1 0 0.2 0 0.4 0.1 0.2 0.1 0.4 0.1 0.1 0.2 0.3 0 0.2 0.1 0.4-0.4-0.1-0.8-0.3-0.4-0.1-0.8-0.3-0.4-0.3-0.7-0.5-0.4-0.3-0.7-0.6 0.1 0.3 0.2 0.6 0.1 0.4 0.2 0.7 0.2 0.3 0.3 0.6 0.2 0.3 0.4 0.5c-2.5-1.4-3-5.1-5.5-6.9 3.1 0.9 2.9 3 5.7 4z"/><path class="b" d="m215.1 14.7c1.4-0.1 3.7 1.6 4.2 5.1q-0.2 0.5-0.3 1.1c-1.9 1.9-3 4.8-3.8 7.9q-0.3-0.8-0.5-1.6-0.2-0.8-0.4-1.7-0.1-0.8-0.2-1.7-0.1-0.8-0.2-1.7c0-1.3-0.1-7.3 1.2-7.4z"/><path class="c" d="m213.8 6.5c3.4-0.2 4.7 2.9 5.6 6l0.2 1.7q0 0.7 0 1.4 0 0.7-0.1 1.4 0 0.7-0.1 1.4 0 0.7-0.1 1.4c-0.5-3.5-2.8-5.2-4.2-5.1-1.3 0.1-1.2 6.1-1.2 7.4q0.1 0.9 0.2 1.7 0.1 0.9 0.2 1.7 0.2 0.9 0.4 1.7 0.2 0.8 0.5 1.6-0.4 1.7-0.7 3.3-0.1 0.7-0.2 1.2v-0.3q-0.1-1.2-0.3-2.6-0.2-0.9-0.5-1.7-0.2-0.9-0.5-1.7-0.3-0.9-0.6-1.7-0.3-0.8-0.7-1.6-0.2-0.7-0.4-1.3-0.2-0.6-0.3-1.3-0.2-0.6-0.4-1.2-0.1-0.7-0.3-1.3c-0.1-4.4 0.4-12 3.5-12.1z"/><path class="d" d="m212.8 3c1.7-0.1 5.6 3.4 6.6 9.5-0.9-3.1-2.2-6.2-5.6-6-3.1 0.1-3.6 7.7-3.5 12.1q-0.1-0.6-0.2-1.2-0.1-0.6-0.2-1.2-0.1-0.6-0.2-1.2 0-0.6-0.1-1.2c-0.3-6 2.1-10.7 3.2-10.8z"/><path class="e" d="m204.2 20.8q0.1 1 0.2 2 0.1 1 0.3 1.9 0.2 1 0.4 2 0.2 1 0.4 2-0.7-1.2-1.2-2.3-0.5-1.2-0.9-2.4-0.4-1.3-0.6-2.5-0.3-1.3-0.4-2.6c-0.3-7.3 3.1-5.5 6.3-0.7q-0.3-0.1-0.5-0.3-0.3-0.1-0.5-0.2-0.3 0-0.6-0.1-0.3 0-0.5 0c-2 0.1-2.6 1.3-2.4 3.2z"/><path class="f" d="m206.8 24.2c2.1-0.1 6.8 3.1 7.2 10.4q0 0.1 0 0.2 0 0.1 0 0.2 0 0.1 0 0.2 0 0.1 0 0.2c-0.2 1.3-0.5 2.5-0.7 3.8q-0.7-0.8-1.4-1.6-0.7-0.8-1.4-1.6-0.6-0.8-1.3-1.6-0.6-0.9-1.2-1.7c-0.9-2.7-1.8-5.4-1.8-7.1-0.1-0.4 0.1-1.5 0.6-1.4z"/><path class="g" d="m206.6 17.6q0.2 0 0.5 0 0.3 0.1 0.6 0.1 0.2 0.1 0.5 0.2 0.2 0.2 0.5 0.3 0.4 0.7 0.8 1.3 0.5 0.7 0.8 1.4 0.4 0.6 0.8 1.3 0.3 0.7 0.6 1.5 0.4 0.8 0.7 1.6 0.3 0.8 0.6 1.7 0.3 0.8 0.5 1.7 0.3 0.8 0.5 1.7 0.2 1.4 0.3 2.6v0.3q-0.1 0.7-0.2 1.3-0.1 0.3-0.1 0.8 0-0.1 0-0.2 0-0.1 0-0.2 0-0.1 0-0.2 0-0.1 0-0.2c-0.4-7.3-5.1-10.5-7.2-10.4-0.5-0.1-0.7 1-0.6 1.4 0 1.7 0.9 4.4 1.8 7.1q-0.4-0.5-0.7-1-0.3-0.5-0.6-1-0.4-0.5-0.7-1-0.2-0.5-0.5-1-0.2-1-0.4-2-0.2-1-0.4-2-0.2-0.9-0.3-1.9-0.1-1-0.2-2c-0.2-1.9 0.4-3.1 2.4-3.2z"/><path class="h" d="m222.4 20.1q-0.7 0.1-1.3 0.2-0.6 0.2-1.1 0.4-0.6 0.3-1.1 0.7-0.5 0.3-0.9 0.8 0.1-0.2 0.2-0.4 0.1-0.1 0.3-0.3 0.1-0.1 0.2-0.3 0.2-0.1 0.3-0.3 0.6-0.5 1.3-0.9 0.6-0.4 1.3-0.7 0.8-0.3 1.5-0.5 0.8-0.2 1.6-0.2c1.7-0.1 3.1-0.1 3.2 1.5 0.2 3.5-1.6 8.3-4.9 12.5q0.6-1 1.1-2 0.4-1 0.8-2.1 0.3-1 0.5-2.1 0.1-1.1 0.1-2.3c0-1.9-1.4-4-3.1-4z"/><path class="i" d="m221.3 34.5q-0.9 0.9-1.9 1.8-0.9 0.8-2 1.6-1 0.7-2.2 1.3c2.9-2.5 5.6-5.8 5.4-9.8 0-1-0.3-2.4-1.4-2.3-1.4 0-4.7 8.8-5.8 12.3q0 0 0-0.1 0 0 0 0-0.1 0-0.1-0.1 0 0 0 0c0.3-1.5 0.5-3 0.8-4.6q0.1-0.6 0.2-1.3 0.1-0.5 0.2-1.2c0.6-3.6 1.5-7.3 3.5-9.9q0.4-0.5 0.9-0.8 0.5-0.4 1.1-0.7 0.5-0.2 1.1-0.4 0.6-0.1 1.3-0.2c1.7 0 3.1 2.1 3.1 4q0 1.2-0.1 2.3-0.2 1.1-0.5 2.1-0.4 1.1-0.8 2.1-0.5 1-1.1 2-0.8 1-1.7 1.9z"/><path class="j" d="m219.2 27c1.1 0 1.4 1.4 1.4 2.4 0.2 4-2.5 7.3-5.4 9.8q-0.1 0.1-0.3 0.2-0.2 0.1-0.3 0.1-0.2 0.1-0.4 0.2-0.1 0.1-0.3 0.2l-0.5-0.5c1.1-3.5 4.4-12.3 5.8-12.4z"/><path class="k" d="m211.9 37.9q0.3 0.3 0.7 0.5 0.4 0.2 0.8 0.3 0.4 0.2 0.8 0.3-0.1-0.2-0.1-0.4-0.1-0.2-0.2-0.4 0-0.1-0.1-0.3 0-0.2 0-0.4 0-0.1 0-0.1 0-0.1 0-0.2 0 0 0-0.1 0 0 0-0.1 0.1 0.2 0.2 0.4 0.2 0.2 0.3 0.4 0.1 0.2 0.3 0.4 0.1 0.2 0.2 0.4 0-0.5 0.1-0.9 0.1-0.4 0.3-0.8 0.1-0.4 0.3-0.8 0.2-0.3 0.5-0.6 0 0.2-0.1 0.3 0 0.2 0 0.4 0 0.2-0.1 0.4 0 0.2 0 0.4 0.1 0.1 0.1 0.3 0 0.1 0 0.2 0.1 0.1 0.1 0.2 0 0.2 0.1 0.3 0.2-0.4 0.5-0.7 0.3-0.4 0.7-0.6 0.4-0.3 0.8-0.4 0.5-0.2 0.9-0.2 0.1-0.1 0.1-0.1 0.1 0 0.1 0.1 0.1 0 0.1 0 0.1 0 0.1 0-0.4 0.3-0.8 0.6-0.5 0.4-0.8 0.8-0.4 0.3-0.7 0.8-0.3 0.4-0.5 0.9-0.3 0.2-0.5 0.3-0.2 0.1-0.5 0.2-0.2 0.1-0.5 0.2-0.2 0-0.5 0.1-0.2 0-0.5 0.1 0 0-0.1 0-0.1 0-0.2 0-0.1 0-0.2-0.1-0.1 0-0.2 0h-0.2q0 0-0.1 0-0.1 0-0.1 0-0.1 0-0.2 0 0 0-0.1 0-0.1 0-0.1-0.1-0.1 0-0.2 0 0 0-0.1-0.1-0.1 0-0.1-0.1-0.2-0.2-0.4-0.5-0.1-0.3-0.2-0.6-0.1-0.3-0.2-0.6-0.1-0.3-0.2-0.6 0.3 0.3 0.7 0.5z"/><path class="l" d="m211.8 32q0 0 0-0.1 0-0.1 0-0.2 0-0.1 0-0.2 0.1 0.5 0.3 0.9 0.1 0.5 0.3 0.9 0.2 0.4 0.5 0.8 0.2 0.4 0.5 0.8v-0.2c-0.1-3.1 2.5-5.7 5.5-6.4-1.1 1.3-2.5 3.2-2.4 4.9l0.1 0.6q-0.1-0.2-0.2-0.3 0-0.2-0.1-0.3 0-0.2 0-0.4 0-0.1 0-0.3 0-0.2 0-0.4 0-0.2 0-0.5 0-0.2 0.1-0.4 0.1-0.2 0.2-0.4-0.3 0.3-0.5 0.5-0.2 0.3-0.4 0.6-0.2 0.3-0.4 0.6-0.2 0.3-0.3 0.6-0.2 0.3-0.4 0.6-0.1 0.3-0.2 0.6-0.1 0.3-0.2 0.6-0.1 0.3-0.2 0.6l-0.2 0.1c-1.1-0.1-1.9-2.3-2-3.4q0-0.1 0-0.2z"/><path class="m" d="m212.5 36.9q-0.3-0.4-0.6-0.9-0.2-0.4-0.4-0.9-0.1-0.5-0.2-1-0.1-0.5-0.1-1-0.1-0.4-0.1-0.7 0.1-0.4 0.1-0.8 0.1-0.4 0.2-0.7 0.1-0.4 0.2-0.8l0.1 0.5q0 0.1 0 0.3 0 0.1 0 0.2 0 0.1 0.1 0.2 0 0.1 0 0.2 0 0.1 0 0.2 0 0.1 0 0.2 0 0.1 0 0.1 0 0.1 0 0.2c0.1 1.1 0.9 3.3 2 3.4l0.2-0.1q0.1-0.3 0.2-0.6 0.1-0.3 0.2-0.6 0.1-0.3 0.2-0.6 0.2-0.3 0.4-0.6 0.1-0.3 0.3-0.6 0.2-0.3 0.4-0.6 0.2-0.3 0.4-0.6 0.2-0.2 0.5-0.5-0.1 0.2-0.2 0.4-0.1 0.2-0.1 0.4 0 0.3 0 0.5 0 0.2 0 0.4 0 0.2 0 0.3 0 0.2 0 0.4 0.1 0.1 0.1 0.3 0.1 0.1 0.2 0.3 0 0.1 0.1 0.3 0 0.1 0.1 0.2 0.1 0.1 0.2 0.2 0.1 0.1 0.2 0.2c1.3-0.4 2.5-1.3 3.9-1.3 0.8-0.1 2.3 0.2 2.5 1q0 0 0 0 0 0-0.1 0 0 0 0 0 0-0.1-0.1-0.1c-3 0.2-4.4 3.4-6.8 4.9q0.2-0.5 0.5-0.9 0.3-0.5 0.7-0.8 0.3-0.4 0.8-0.8 0.4-0.3 0.8-0.6 0 0-0.1 0 0 0-0.1 0 0-0.1-0.1-0.1 0 0-0.1 0.1-0.4 0-0.9 0.2-0.4 0.1-0.8 0.4-0.4 0.2-0.7 0.6-0.3 0.3-0.5 0.7-0.1-0.1-0.1-0.3 0-0.1-0.1-0.2 0-0.1 0-0.2 0-0.2-0.1-0.3 0-0.2 0-0.4 0.1-0.2 0.1-0.4 0-0.2 0-0.4 0.1-0.1 0.1-0.3-0.3 0.3-0.5 0.6-0.2 0.4-0.3 0.8-0.2 0.4-0.3 0.8-0.1 0.4-0.1 0.9-0.1-0.2-0.2-0.4-0.2-0.2-0.3-0.4-0.1-0.2-0.3-0.4-0.1-0.2-0.2-0.4 0 0.1 0 0.1 0 0.1 0 0.1 0 0.1 0 0.2 0 0 0 0.1 0 0.2 0 0.4 0.1 0.2 0.1 0.3 0.1 0.2 0.2 0.4 0 0.2 0.1 0.4-0.4-0.1-0.8-0.3-0.4-0.1-0.8-0.3-0.4-0.2-0.7-0.5-0.4-0.2-0.7-0.5 0.1 0.3 0.2 0.6 0.1 0.3 0.2 0.6 0.1 0.3 0.2 0.6 0.2 0.3 0.4 0.5c-2.4-1.4-2.8-5-5.4-7 3.1 1.1 2.8 3.1 5.7 4.2z"/><path class="b" d="m166.3 91.1q0 0.9-0.1 1.7 0 0.9-0.2 1.7-0.1 0.9-0.3 1.7-0.1 0.9-0.4 1.7c-0.9-3.1-2.1-5.8-4.2-7.7q0-0.1-0.1-0.3 0-0.1 0-0.3-0.1-0.1-0.1-0.3 0-0.1 0-0.3c0.2-3.4 2.3-5.2 3.8-5.2 1.3 0 1.5 6 1.6 7.3z"/><path class="c" d="m169.6 87.4q-0.1 0.7-0.2 1.3-0.1 0.6-0.3 1.3-0.1 0.6-0.3 1.3-0.1 0.6-0.3 1.2-0.3 0.9-0.6 1.7-0.2 0.9-0.5 1.7-0.2 0.9-0.4 1.8-0.2 0.9-0.3 1.7-0.1 0.4-0.1 0.7-0.1 0.3-0.1 0.6 0 0.3 0 0.6 0 0.4 0 0.7 0 0 0 0.1 0 0 0 0 0 0.1 0 0.1 0 0.1 0 0.1-0.1-0.1-0.1-0.3 0-0.1-0.1-0.2 0-0.2 0-0.3-0.1-0.1-0.1-0.3-0.1-0.4-0.2-0.8-0.1-0.4-0.2-0.8-0.1-0.5-0.2-0.9-0.1-0.4-0.3-0.8 0.3-0.8 0.4-1.7 0.2-0.8 0.3-1.7 0.2-0.8 0.2-1.7 0.1-0.8 0.1-1.7c-0.1-1.3-0.3-7.3-1.6-7.3-1.5 0-3.6 1.8-3.8 5.2q-0.2-0.6-0.4-1.3-0.1-0.7-0.2-1.4 0-0.6-0.1-1.3 0-0.7 0-1.4 0-0.2 0-0.5 0-0.2 0-0.4 0-0.3 0-0.5 0-0.2 0-0.4c0.7-3.1 1.9-6.3 5.3-6.2 3.1 0 4 7.4 4.1 11.8z"/><path class="d" d="m170 82.5q0 0.6 0 1.2 0 0.7-0.1 1.3 0 0.6-0.1 1.2-0.1 0.6-0.2 1.2c-0.1-4.4-1-11.8-4.1-11.8-3.4-0.1-4.6 3.1-5.3 6.2 0.7-6.2 4.4-9.8 6-9.8 1.1 0 3.8 4.7 3.8 10.5z"/><path class="e" d="m173.4 86.2q-0.3 0-0.6 0-0.3 0.1-0.5 0.2-0.3 0.1-0.6 0.2-0.2 0.1-0.4 0.3c2.9-5 6.2-7 6.3 0.4q-0.1 1.3-0.2 2.6-0.2 1.3-0.5 2.5-0.4 1.3-0.8 2.5-0.5 1.2-1.1 2.4 0.2-1 0.3-2 0.2-1 0.3-2 0.1-1 0.2-2 0.1-1 0.1-2c0.1-2-0.6-3.1-2.5-3.1z"/><path class="f" d="m174.2 94.2q-0.1 0.9-0.2 1.8-0.1 0.9-0.3 1.8-0.2 0.9-0.4 1.8-0.2 0.9-0.5 1.7c-1.5 2.3-3.2 4.6-4.9 6.9-0.4-1.2-0.7-2.6-1-3.9q0 0 0-0.1 0-0.1 0-0.2 0-0.1 0-0.2 0-0.1 0-0.2c0-7.3 4.6-10.9 6.6-10.9 0.5 0.1 0.7 1 0.7 1.5z"/><path class="g" d="m175.9 89.3q0 1-0.1 2-0.1 1-0.2 2-0.1 1-0.3 2-0.1 1-0.3 2-1 2-2.2 4 0.3-0.8 0.5-1.7 0.2-0.9 0.4-1.8 0.2-0.9 0.3-1.8 0.1-0.9 0.2-1.8c0-0.5-0.2-1.4-0.7-1.5-2 0-6.6 3.6-6.6 10.9q0 0.1 0 0.2 0 0.1 0 0.2 0 0.1 0 0.2 0 0.1 0 0.1 0 0 0-0.1 0-0.1 0-0.2-0.1-0.1-0.1-0.2 0-0.1-0.1-0.1 0-0.2 0-0.4 0-0.2-0.1-0.3 0-0.2-0.1-0.4 0-0.1 0-0.3 0 0 0-0.1 0 0 0-0.1 0 0 0 0 0-0.1 0-0.1 0-0.3 0-0.7 0-0.3 0-0.6 0-0.3 0.1-0.6 0-0.3 0.1-0.7 0.1-0.8 0.3-1.7 0.2-0.9 0.4-1.8 0.3-0.8 0.5-1.7 0.3-0.8 0.6-1.7 0.3-0.7 0.6-1.4 0.3-0.7 0.7-1.5 0.3-0.7 0.7-1.3 0.4-0.7 0.8-1.4 0.2-0.2 0.4-0.3 0.3-0.1 0.6-0.2 0.2-0.1 0.5-0.2 0.3 0 0.6 0c1.9 0 2.6 1.1 2.5 3.1z"/><path class="h" d="m154.8 93.7q0 1.2 0.3 2.3 0.2 1.1 0.6 2.1 0.3 1.1 0.9 2.1 0.5 1 1.1 1.9c-3.6-4-5.4-8.7-5.5-12.1 0.1-1.8 1.5-1.8 3.2-1.8q0.8 0 1.5 0.1 0.8 0.1 1.5 0.4 0.8 0.2 1.4 0.6 0.7 0.4 1.3 0.9 0.2 0.2 0.3 0.3 0.2 0.2 0.3 0.3 0.1 0.2 0.3 0.3 0.1 0.2 0.2 0.4-0.4-0.4-1-0.8-0.5-0.3-1.1-0.6-0.5-0.2-1.2-0.3-0.6-0.1-1.2-0.1c-1.7 0-2.9 2.2-2.9 4z"/><path class="i" d="m163.7 107q-1.1-0.6-2.2-1.4-1-0.8-1.9-1.7-1-0.8-1.9-1.8-0.6-0.9-1.1-1.9-0.6-1-0.9-2.1-0.4-1-0.6-2.1-0.3-1.1-0.3-2.3c0-1.8 1.2-4 2.9-4q0.6 0 1.2 0.1 0.7 0.1 1.2 0.3 0.6 0.3 1.1 0.6 0.6 0.4 1 0.8c2.1 2.4 3.2 6.1 4 9.7q0 0.2 0.1 0.3 0 0.1 0 0.3 0.1 0.1 0.1 0.2 0 0.2 0.1 0.3 0 0.2 0 0.3 0.1 0.2 0.1 0.4 0.1 0.1 0.1 0.3 0 0.2 0 0.4c0.5 1.5 0.8 3 1.2 4.5q0 0-0.1 0 0 0 0 0-0.1 0-0.1 0 0 0.1 0 0.1c-1.2-3.4-5-11.9-6.4-11.9-1.1 0-1.3 1.4-1.3 2.4 0.1 4 2.8 7.1 6 9.4q-1.2-0.5-2.3-1.2z"/><path class="j" d="m167.7 108.3q0 0.1-0.1 0.1 0 0.1-0.1 0.2 0 0.1-0.1 0.1-0.1 0.1-0.1 0.1l-1.3-0.6c-3.2-2.3-5.9-5.4-6-9.4 0-1 0.2-2.4 1.3-2.4 1.4 0 5.2 8.5 6.4 11.9z"/><path class="k" d="m167.8 107.7q0.4-0.2 0.7-0.4 0.4-0.2 0.7-0.5 0.3-0.3 0.6-0.6 0 0.3-0.1 0.6 0 0.3-0.2 0.6-0.1 0.3-0.2 0.6-0.2 0.3-0.3 0.6-0.1 0.1-0.1 0.1-0.1 0.1-0.2 0.1 0 0.1-0.1 0.1 0 0-0.1 0.1-0.1 0-0.2 0 0 0-0.1 0-0.1 0-0.2 0 0 0-0.1 0h-0.1q-0.4 0-0.8 0.1-0.1 0-0.1 0-0.1-0.1-0.2-0.1 0 0-0.1 0 0 0-0.1 0.1-0.3-0.1-0.5-0.1-0.3-0.1-0.5-0.2-0.2-0.1-0.5-0.2-0.2-0.1-0.4-0.2-0.3-0.5-0.6-0.9-0.3-0.5-0.7-0.9-0.4-0.3-0.8-0.7-0.5-0.3-1-0.5 0.2 0 0.4 0 0.5 0 0.9 0.1 0.4 0.1 0.8 0.4 0.4 0.2 0.8 0.5 0.3 0.3 0.6 0.6 0-0.1 0.1-0.2 0-0.1 0-0.2 0-0.1 0-0.3 0.1-0.1 0.1-0.2 0-0.2-0.1-0.4 0-0.2 0-0.3 0-0.2-0.1-0.4-0.1-0.2-0.1-0.4 0.3 0.3 0.5 0.7 0.3 0.3 0.5 0.7 0.1 0.3 0.2 0.7 0.2 0.4 0.2 0.9 0.1-0.2 0.3-0.4 0.1-0.2 0.2-0.4 0.1-0.2 0.2-0.4 0.1-0.2 0.2-0.5 0 0.1 0 0.2 0 0 0.1 0.1 0 0.1 0 0.2 0 0-0.1 0.1 0 0.2 0 0.4 0 0.2 0 0.4-0.1 0.1-0.1 0.3-0.1 0.2-0.2 0.4 0.5-0.1 0.9-0.3z"/><path class="l" d="m168.9 100.6q0 0.1 0 0.2 0 0.1 0 0.2 0 0.1 0 0.1c0.1 1.1-0.6 3.4-1.7 3.5h-0.1q0 0-0.1 0 0 0 0 0 0 0-0.1 0 0 0 0 0-0.1-0.4-0.2-0.7-0.1-0.3-0.2-0.6-0.2-0.3-0.4-0.6-0.1-0.3-0.4-0.5-0.1-0.3-0.3-0.6-0.2-0.3-0.4-0.6-0.2-0.3-0.4-0.5-0.2-0.3-0.5-0.5 0.1 0.2 0.2 0.4 0.1 0.1 0.1 0.3 0.1 0.2 0.1 0.4 0 0.2 0 0.5 0 0.1 0 0.3 0 0.2-0.1 0.3 0 0.2-0.1 0.4 0 0.2-0.1 0.3l0.1-0.6c0-1.6-1.5-3.5-2.6-4.7 3 0.6 5.7 2.9 5.8 6.2v0.1q0.2-0.4 0.5-0.8 0.2-0.4 0.4-0.9 0.1-0.4 0.3-0.9 0.1-0.4 0.2-0.9 0 0.1 0 0.2z"/><path class="m" d="m174 101.3c-2.4 2.1-2.6 5.8-5 7.3q0.1-0.3 0.3-0.6 0.1-0.3 0.2-0.6 0.2-0.3 0.2-0.6 0.1-0.3 0.1-0.6-0.3 0.3-0.6 0.6-0.3 0.3-0.7 0.5-0.3 0.2-0.7 0.4-0.4 0.2-0.9 0.3 0.1-0.2 0.2-0.4 0-0.2 0.1-0.3 0-0.2 0-0.4 0-0.2 0-0.4 0.1-0.1 0.1-0.1 0-0.1 0-0.2-0.1-0.1-0.1-0.1 0-0.1 0-0.2-0.1 0.3-0.2 0.5-0.1 0.2-0.2 0.4-0.1 0.2-0.2 0.4-0.2 0.2-0.3 0.4 0-0.5-0.2-0.9-0.1-0.4-0.2-0.7-0.2-0.4-0.5-0.7-0.2-0.4-0.5-0.7 0 0.2 0.1 0.4 0.1 0.2 0.1 0.4 0 0.1 0 0.3 0.1 0.2 0.1 0.4 0 0.1-0.1 0.2 0 0.2 0 0.3 0 0.1 0 0.2-0.1 0.1-0.1 0.2-0.3-0.3-0.6-0.6-0.4-0.3-0.8-0.5-0.4-0.3-0.8-0.4-0.4-0.1-0.9-0.1-0.2 0-0.4 0 0.5 0.2 1 0.5 0.4 0.4 0.8 0.7 0.4 0.4 0.7 0.9 0.3 0.4 0.6 0.9c-2.4-1.4-4.2-4.5-7.2-4.5h-0.2c0.2-0.7 1.8-1.1 2.6-1.1 1.4 0 2.6 0.8 3.8 1.1q0.2-0.1 0.3-0.2 0.1-0.1 0.2-0.2 0-0.1 0.1-0.3 0-0.1 0-0.3 0.1-0.1 0.1-0.3 0.1-0.2 0.1-0.4 0.1-0.1 0.1-0.3 0-0.2 0-0.3 0-0.3 0-0.5 0-0.2-0.1-0.4 0-0.2-0.1-0.3-0.1-0.2-0.2-0.4 0.3 0.2 0.5 0.5 0.2 0.2 0.4 0.5 0.2 0.3 0.4 0.6 0.2 0.3 0.3 0.6 0.3 0.2 0.4 0.5 0.2 0.3 0.4 0.6 0.1 0.3 0.2 0.6 0.1 0.3 0.2 0.7 0 0 0 0 0.1 0 0.1 0 0 0 0 0 0.1 0 0.1 0h0.1c1.1-0.1 1.8-2.4 1.7-3.5q0 0 0-0.1 0-0.1 0-0.2 0-0.1 0-0.2 0-0.1 0-0.2 0-0.5 0.1-0.9l-0.1-0.6q0.2 0.4 0.3 0.7 0.2 0.4 0.3 0.8 0.1 0.4 0.1 0.8 0.1 0.4 0 0.7 0.1 0.5 0 1-0.1 0.5-0.2 1-0.1 0.5-0.4 1-0.2 0.4-0.5 0.8c2.8-1.2 2.4-3.1 5.5-4.4z"/></g><path fill-rule="evenodd" class="n" d="m457.3 392.5q4 0.6 6.8 1c3.2 0.5 5.1 0.6 5.6 0.7q-0.8-0.1-5.6-0.5l-6.8-0.7q-2.1-0.2-4.4-0.4-2.3-0.4-5-0.7-5.3-0.7-11.7-1.5-6.4-1.1-13.9-2.1c-9.8-1.8-21.2-3.9-33.5-6.8q-8.4-1.9-16.8-4.1-8.4-2.3-16.7-4.8-8.3-2.5-16.6-5.3-8.2-2.8-16.3-5.8c-9.5-1.5-20.7-3.1-32.7-3.9-16.9-1.2-32.1-0.5-43.2 1.3q-1.6 0.3-3.2 0.6-1.6 0.2-3.2 0.6-1.6 0.3-3.2 0.7-1.6 0.4-3.2 0.8c-3 0.8-4.7 1.3-4.7 1.3 0 0 1.6-0.8 4.5-1.9q1.6-0.6 3.2-1.1 1.5-0.6 3.1-1 1.6-0.5 3.2-0.9 1.6-0.5 3.3-0.8c10.7-2.9 26.5-4.6 43.6-3.4 6.2 0.4 12.2 1.1 17.8 1.9l-3.8-1.5q-6-2.6-12-5.4-6-2.7-11.9-5.6-6-2.9-11.8-6-5.9-3-11.6-6.2-6.2-3.6-12.2-7.3-6.1-3.7-12-7.6-5.9-3.9-11.7-8-5.7-4.1-11.4-8.4-5.6-4.2-11.2-8.7-5.5-4.4-10.9-9-5.3-4.6-10.6-9.4-5.2-4.8-10.2-9.8c-6.7-6.2-12.8-12.8-18.9-19.2-6-6.5-11.8-12.7-17.3-19.2q-9.1-10.6-17.4-21-1-0.8-2.1-1.6-4.1-2.8-8.6-5.6c-3.1-1.8-6.2-3.6-9.6-5.6q-1.2-0.7-2.4-1.5-1.2-0.8-2.4-1.6-1.1-0.8-2.3-1.7-1.1-0.8-2.2-1.8-1-0.8-2-1.7-1-0.9-1.9-1.8-0.9-1-1.8-1.9-0.9-1-1.8-2c-4.4-5-8.1-9.7-11.4-13.2q-1-1-2.1-2-1-1-2.2-1.9-1.1-1-2.2-1.8-1.2-0.9-2.4-1.7-0.4-0.2-0.7-0.4-0.3-0.3-0.7-0.4-0.3-0.2-0.6-0.4-0.4-0.2-0.7-0.4-1.1-0.6-1-0.7 0.1-0.2 1.3-0.1 0.4 0.1 0.8 0.2 0.3 0.2 0.7 0.3 0.4 0.2 0.8 0.3 0.4 0.2 0.8 0.4 1.3 0.6 2.7 1.3 1.3 0.8 2.6 1.6 1.2 0.9 2.4 1.8 1.2 1 2.3 2.1c3.7 3.3 7.8 7.9 12.2 12.6q0.8 1 1.7 1.9 0.9 0.9 1.8 1.7 0.9 0.9 1.8 1.8 1 0.8 1.9 1.6 1.1 0.9 2.2 1.7 1.1 0.8 2.2 1.6 1.1 0.7 2.2 1.5 1.2 0.7 2.4 1.3c3.2 2.1 6.4 3.9 9.4 5.9q1 0.5 1.8 1c-11.2-14.4-21.1-28.1-29.7-40.5-14.4-20.8-25.6-38.1-33.1-50-3.8-6.1-6.6-10.8-8.5-13.9-1.9-3.2-2.8-5.1-2.7-5.1 0.1-0.1 1.4 1.5 3.5 4.6 2.2 3 5.4 7.5 9.3 13.3 8.1 11.8 19.6 28.6 34.3 49.1 12.3 16.9 26.6 36.3 43.7 56.7q0.4 0.4 0.7 0.8 0.4 0.3 0.8 0.7 0.3 0.4 0.7 0.8 0.3 0.4 0.6 0.8 0.6 0.7 1.2 1.4 0.6 0.6 1.2 1.3 0.5 0.7 1.1 1.5 0.5 0.7 1 1.4 1.9 2.1 3.9 4.4c5.4 6.3 11.2 12.5 17.2 19 6.1 6.2 12.2 12.6 18.8 18.8q5.4 5.3 11.1 10.4-2-2.9-3.9-6-1.8-3-3.5-6.1-1.7-3.1-3.2-6.3-1.5-3.3-2.8-6.5-1.5-3.7-2.8-7.4-1.3-3.7-2.5-7.5-1.2-3.8-2.3-7.6-1.1-3.8-2-7.6c-2.2-8.7-3.7-15.8-4.8-20.8-1-4.8-1.4-7.6-1.1-7.6 0.2 0 1.1 2.7 2.6 7.4 1.4 4.7 3.3 11.7 5.8 20.3q1.1 3.8 2.2 7.5 1.2 3.7 2.5 7.3 1.3 3.7 2.7 7.3 1.4 3.7 2.8 7.3c4.7 10.7 10.8 22.1 19.7 32.1 8.8 10.2 19.3 17.8 29 24.3 9.7 6.7 18.8 12.4 26.2 17.4 8.8 5.8 15.7 10.3 19.7 13.1q7.5 4.1 14.9 7.9c7.1 2.7 15 5.6 23.5 8.7 8.6 3 18.5 6.5 29.4 10.2l-0.8-0.8q-1.2-1-2.4-2.1-1.1-1-2.2-2.1-1.1-1.1-2.2-2.3-1-1.1-2-2.3-0.9-1.2-1.7-2.3-0.8-1.2-1.6-2.4-0.7-1.2-1.4-2.4-0.7-1.3-1.4-2.5-1.1-2.2-2-4.4-1-2.2-1.9-4.4-0.8-2.3-1.6-4.6-0.7-2.3-1.3-4.6c-2.7-10.6-3.4-17.1-3-17.2 0.5-0.2 2.2 6.3 5.6 16.4q0.7 2.2 1.5 4.4 0.8 2.2 1.7 4.3 0.9 2.2 1.9 4.3 1 2.1 2.1 4.1 0.7 1.2 1.4 2.4 0.7 1.1 1.4 2.3 0.8 1.1 1.6 2.2 0.8 1.1 1.7 2.1 0.9 1.1 1.8 2.2 1 1.1 2 2.1 1 1.1 2.1 2 1.1 1 2.2 1.9 1.4 1.2 2.9 2.3 1.5 1.1 3.1 2.1 1.5 1 3.1 1.9 1.6 1 3.3 1.8c7.9 2.6 16.2 5.2 24.8 7.8 24.9 7.6 49 8.8 66.8 12q2.8 0.4 5.5 0.9 2.7 0.6 5.4 1.2 2.7 0.6 5.4 1.3 2.7 0.7 5.4 1.5 0.2 0 0.4 0.1 0.2 0.1 0.5 0.1 0.2 0.1 0.4 0.2 0.2 0 0.4 0.1 0.9 0.1 1.8 0.2 0.9 0.1 1.7 0.3 0.9 0.1 1.7 0.3 0.9 0.1 1.8 0.3 0 0.1 0 0.1 0.1 0 0.1 0 0 0 0.1-0.1 0 0 0.1 0l-0.4 2.6q0.1 0.1 0.2 0.3 0 0.1 0.1 0.2 0.1 0.1 0.2 0.2 0.1 0.1 0.2 0.2h0.2l-0.1 0.1q-0.2 0-0.3 0-0.1 0-0.2 0-0.1 0-0.2 0-0.1 0.1-0.3 0.1l0.1 0.1q0 0-0.1 0-0.1 0-0.1 0-0.1 0-0.2 0 0 0-0.1 0l0.6 0.9h1.6l-1.5 0.1h-0.5l-0.2 0.1-0.3-0.1q-0.9 0.1-1.8 0.1-0.9 0-1.8 0-0.9 0-1.7 0-0.9-0.1-1.8-0.2-1.4 0-2.7-0.1-1.4-0.1-2.8-0.3-1.3-0.1-2.7-0.3-1.4-0.2-2.7-0.4 1.6 0.3 3.2 0.5 2.3 0.4 4.3 0.6zm11.4-2.1v0.5l0.5 0.4zm-7 1.3q-0.1 0-0.2 0-0.1 0-0.2 0-0.1 0-0.1 0-0.1 0-0.1-0.1 0.1 0.1 0.2 0.1 0.2 0 0.4 0.1 0.2 0 0.4 0 0.1 0.1 0.3 0.1c0 0-0.7-0.2-0.7-0.2zm-0.6-0.1q-0.1 0-0.1 0 0 0 0.1 0z"/><path class="o" d="m248.3 325.5c-21.6-23.6-63.3-45-89.7-53.5 41.8 11.5 75.6 35.8 91.3 51.3l-0.1 1.4c0 0-1.5 0.8-1.5 0.8z"/><path class="p" d="m162.6 309.2c-8.2 0-20.2-7.2-27.3-16.2 0.1-8.9 1.6-21.6 10.6-24.1q6.5 1.3 12.7 3.1 4.2 1.4 9 3.2c4.5 6.1 8.9 13.8 8.8 20.5-0.1 7.7-4 13.7-13.8 13.5z"/><path class="q" d="m190.2 326.9q-4.2 0-8.3-0.4-4.1-0.3-8.2-1.1-4-0.7-8-1.8-4-1.1-7.8-2.6-1.2-0.6-2.3-1.3-1.1-0.6-2.2-1.3-1-0.8-2.1-1.5-1-0.8-2-1.6c8.7 2.8 17.7 4.7 22.1 4.8 12.3 0.1 28.9-5.7 29.1-18.1 0.1-5.2-2.6-10.8-6.5-15q3.7 1.9 7.3 3.9 3.7 2 7.3 4.1 3.5 2.1 7 4.3 3.5 2.3 7 4.6 0.5 1.1 0.9 2.3 0.3 1.2 0.6 2.5 0.3 1.2 0.4 2.4 0.2 1.3 0.2 2.5c0 13.2-21.8 13.5-34.5 13.3z"/><path class="r" d="m157.9 321q3.8 1.5 7.8 2.6 4 1.1 8 1.8 4.1 0.8 8.2 1.1 4.1 0.4 8.3 0.4c12.7 0.2 34.5-0.1 34.5-13.3q0-1.2-0.2-2.5-0.1-1.2-0.4-2.4-0.3-1.3-0.6-2.5-0.4-1.2-0.9-2.3c9.8 6.7 18.8 14 25.7 21.6-13 6.7-23.7 10.8-40.8 10.6-13.1-0.1-33.7-5.9-49.6-15.1z"/><path class="s" d="m171.4 320.1c-4.4-0.1-13.4-2-22.1-4.8-8.5-6.4-14.1-14.1-14-22.3 7.1 9 19.1 16.2 27.3 16.2 9.9 0.2 13.7-5.8 13.8-13.5 0.1-6.7-4.3-14.4-8.8-20.5q3.4 1.3 6.7 2.7 3.3 1.4 6.7 2.8 3.3 1.5 6.5 3.1 3.3 1.5 6.5 3.2c3.9 4.2 6.6 9.8 6.5 15-0.2 12.4-16.8 18.2-29.1 18.1z"/><path class="t" d="m162 243.5c19.1 0.2 39.1 32.8 44.5 48.3q-3.8-2.1-7.6-4.1-3.9-1.9-7.8-3.7-3.9-1.8-7.9-3.5-4-1.6-8.1-3.1 1.1-0.9 1.9-2 0.8-1 1.4-2.3 0.6-1.2 0.9-2.5 0.4-1.3 0.4-2.7c0.1-7.1-11.2-20-27.5-20.1q-0.6 0-1.3 0-0.7 0.1-1.3 0.1-0.7 0.1-1.3 0.2-0.7 0.1-1.4 0.2 0.7-0.8 1.4-1.5 0.8-0.7 1.6-1.4 0.8-0.6 1.7-1.1 0.8-0.6 1.8-1c2.1 0.1 4.3 0.3 6.4 0.3 1 0 1.7-0.1 2.2-0.1z"/><path class="u" d="m179.7 267.9q0 1.4-0.4 2.7-0.3 1.3-0.9 2.5-0.6 1.3-1.4 2.3-0.8 1.1-1.9 2-8-3-16.5-5.4-1.5-0.5-3-1-1.4-0.4-2.9-0.8-1.5-0.4-3.1-0.8-1.5-0.3-3-0.6l0.1-0.1c-2-3.1-4-6.2-3.9-10.1q0-1.4 0.4-2.8 0.3-1.4 0.8-2.7 0.5-1.3 1.3-2.5 0.7-1.2 1.6-2.3 0.7-0.1 1.4-0.2 0.6-0.1 1.3-0.2 0.6 0 1.3-0.1 0.7 0 1.3 0c16.3 0.1 27.6 13 27.5 20.1z"/><path class="v" d="m206.5 291.8c-5.4-15.5-25.4-48.1-44.5-48.3-0.5 0-1.2 0.1-2.2 0.1-2.1 0-4.3-0.2-6.4-0.3q1.1-0.6 2.4-1 1.2-0.4 2.5-0.6 1.3-0.3 2.6-0.4 1.3-0.1 2.6-0.1 2.1 0.1 4.3 0.4 2.1 0.3 4.2 0.8 2.1 0.5 4.2 1.2 2 0.7 3.9 1.7c7 5.9 11.1 12.8 15.4 16.7 0.9 0.7 41.2 22.3 41.1 35.7q0 0.8-0.1 1.8c0 2.9-0.4 7-3.1 7.5q-0.2 0.2-0.4 0.3-0.2 0.2-0.4 0.3-0.2 0.1-0.4 0.2-0.2 0.1-0.5 0.2-3-2.3-6.1-4.4-3.1-2.1-6.2-4.1-3.2-2.1-6.4-4-3.2-1.9-6.5-3.7z"/><path class="w" d="m231.7 308q0.3-0.1 0.5-0.2 0.2-0.1 0.4-0.2 0.2-0.1 0.4-0.3 0.2-0.1 0.4-0.3c2.7-0.5 3.1-4.6 3.2-7.5q0-1 0-1.8c0.1-13.4-40.2-35-41.1-35.7-4.3-3.9-8.4-10.8-15.4-16.7q2.7 1.2 5.2 2.7 2.6 1.5 4.9 3.2 2.4 1.7 4.7 3.6 2.2 1.9 4.2 4l0.2-0.1c1 0.1 51.2 31.6 51 59.1q-0.1 2.8-0.4 5.5-2.1-2.1-4.3-4.1-2.2-2-4.5-3.9-2.3-1.9-4.6-3.7-2.4-1.9-4.8-3.6z"/><path class="x" d="m70.2 167.7c2.9 0.3 5.5-0.4 7-3.1 6.6-11.5 1.2-34.3-9.5-50.4 13.6 16.6 25.7 42.8 18.2 55.9-1.4 2.5-3.4 4.2-5.8 4.3q-1.5 0.1-2.8 0.1-0.9-0.8-1.9-1.6-0.9-0.8-1.8-1.7-0.9-0.8-1.7-1.7-0.9-0.9-1.7-1.8z"/><path class="y" d="m77.3 174.5q-2.8 0.3-5.5 0.6c-17.3-13.9-19.5-31.3-39.4-48.5 20.3 16.2 32.3 37.7 44.9 47.9z"/><path class="z" d="m15.4 172.2c-9.6-5.6-13.2-22.8-13.6-38.2q0.2-1.1 0.5-2.1 0.2-1 0.6-2 0.3-1 0.7-2 0.4-1 0.9-2 0.5-0.9 1.2-1.7 0.6-0.9 1.3-1.7 0.7-0.8 1.5-1.5 0.8-0.7 1.7-1.3c-8.5 21.5 7.9 35.8 12.4 38.4 7 4.1 18.4 4.9 22.9-2.9 2-3.4 2.2-8.2 1.7-11.9 4.4 6.2 7.8 12.1 11.8 17.9-17.1 0.3-28.9 19.6-43.6 11z"/><path class="A" d="m1.8 134c0.4 15.4 4 32.6 13.6 38.2 14.7 8.6 26.5-10.7 43.6-11q1.3 1.9 2.8 3.8 1.5 1.8 3.1 3.6 1.6 1.7 3.3 3.3 1.8 1.7 3.6 3.2c-30.9 3.7-29.3 18.9-53.5 4.9-18.9-11-19-33.5-16.5-46z"/><path class="B" d="m21.2 136.9c-6.7-4-9-12.2-9.8-18.1q0.6-0.4 1.2-0.8 0.6-0.4 1.2-0.7 0.6-0.3 1.3-0.6 0.6-0.3 1.3-0.6 2.1 1.1 4.1 2.3 1.5 1 3.1 1.9 1.5 1 3 2 1.5 1.1 2.9 2.1 1.5 1.1 2.9 2.2 0.1 0.2 0.3 0.3 0.1 0.1 0.3 0.3 0.1 0.1 0.3 0.2 0.1 0.2 0.2 0.3c0.9 4.1 0.2 7.7-0.5 9-1 1.8-6.9 3-11.8 0.2z"/><path class="C" d="m22.6 158.1c-4.5-2.6-20.9-16.9-12.4-38.4q0.1-0.2 0.3-0.3 0.1-0.1 0.3-0.2 0.1-0.1 0.3-0.2 0.1-0.1 0.3-0.2c0.8 5.9 3.1 14.1 9.8 18.1 4.9 2.8 10.8 1.6 11.8-0.2 0.7-1.3 1.4-4.9 0.5-9q2 1.7 3.8 3.6 1.8 1.8 3.6 3.8 1.7 1.9 3.3 4 1.6 2.1 3 4.2c0.5 3.7 0.3 8.5-1.7 11.9-4.5 7.8-15.9 7-22.9 2.9z"/><path class="A" d="m56.4 103.1c5.4 11 8.2 24.2 3.9 31.4-2.8 4.9-5.9 8.2-10.2 9.3q-2-2.3-4.2-4.5-2.1-2.3-4.3-4.4-2.2-2.2-4.5-4.2-2.3-2.1-4.7-4.1-1.6-1.4-3.5-2.9 2.2 0.6 4.4 0.5 2.2 0 4.3-0.7 2.1-0.6 3.9-1.8 1.9-1.2 3.3-2.9c0.5-0.8 1-1.5 1.4-2.2 2.2-3.8 0.9-12.7-4.7-19.3q1.6 0.2 3.2 0.6 1.6 0.4 3.2 0.9 1.5 0.5 3 1.2 1.5 0.6 3 1.4 0.3 0.2 0.6 0.4 0.3 0.2 0.7 0.4 0.3 0.2 0.6 0.4 0.3 0.3 0.6 0.5z"/><path class="C" d="m46.2 116.6c-0.4 0.7-0.9 1.4-1.4 2.2q-1.4 1.7-3.3 2.9-1.8 1.2-3.9 1.8-2.1 0.7-4.3 0.7-2.2 0.1-4.4-0.5-1.4-1.1-2.9-2.1-1.5-1.1-3-2.1-1.5-1-3.1-1.9-1.6-1-3.1-1.9c0.5-3.7 1.5-7.6 2.7-9.8 4.2-7.1 13.1-9.8 22-8.6 5.6 6.6 6.9 15.5 4.7 19.3z"/><path class="D" d="m77.2 164.6c-1.5 2.7-4.1 3.4-7 3.1-6.1-6.7-12.5-15.2-20.1-23.9 4.3-1.1 7.4-4.4 10.2-9.3 4.3-7.2 1.5-20.4-3.9-31.4q1.5 1.2 3.1 2.5 1.5 1.3 2.9 2.7 1.4 1.4 2.7 2.9 1.3 1.5 2.6 3c10.7 16.1 16.1 38.9 9.5 50.4z"/><path class="A" d="m158.7 199.3q-1.6-4.3-3.3-8.6c4.7-0.7 8.1-5.6 9.1-10.7 1.1-5.2 1.9-18.1-0.6-29.9 3 10.2 4 20.8 1.9 31.2-0.8 3.3-3.3 13.8-7.1 18z"/><path class="E" d="m97.1 145.6c-13.3-2.7-19-10.6-18.6-21.1 3.4-10.8 9.3-19.8 19.2-21 2.7 2.6 5.9 6.1 9.4 10.1 5.4 7.3 10.9 15.8 16.4 24.8-5.8 6.2-15.2 9.6-26.4 7.2z"/><path class="F" d="m97.7 103.5q0.2 0 0.4 0 0.2 0 0.4-0.1 0.2 0 0.4 0 0.1 0 0.3 0v-0.1c2.6 3.1 5.2 6.6 7.9 10.3-3.5-4-6.7-7.5-9.4-10.1z"/><path class="F" d="m155.9 201c-10.9-26.1-31.1-63-48.8-87.4 16.5 19 39.7 52.5 51.6 85.7q-0.2 0.3-0.6 0.6-0.3 0.2-0.6 0.4-0.4 0.3-0.8 0.4-0.4 0.2-0.8 0.3z"/><path class="G" d="m110.5 164.2c-17.2-3.6-28.3-14.4-34.4-29.3q0-0.4 0.1-0.8 0.1-0.3 0.1-0.7 0.1-0.4 0.2-0.8 0.1-0.4 0.2-0.7 0.1-1 0.3-1.9 0.3-0.9 0.5-1.8 0.2-1 0.5-1.9 0.2-0.9 0.5-1.8c-0.4 10.5 5.3 18.4 18.6 21.1 11.2 2.4 20.6-1 26.4-7.2 3.7 6.3 7.5 12.6 11.1 19.1-2.3 8.7-15.9 8.4-24.1 6.7z"/><path class="C" d="m154.8 201c-15.9-3.4-53.6-20.3-70.3-42.3 16.2 17.2 39.9 26.3 45.9 27.5 5.2 1.1 9.9-0.1 11-5.4 1.1-5.2-2.6-11.3-2.1-14.8 6.5 12.4 12.3 24.6 16.6 35q-0.1 0-0.2 0-0.2 0-0.3 0.1-0.2 0-0.3-0.1-0.1 0-0.3 0z"/><path class="H" d="m130.4 186.2c-6-1.2-29.7-10.3-45.9-27.5-5.8-7.5-9.1-15.6-8.4-23.8 6.1 14.9 17.2 25.7 34.4 29.3 8.2 1.7 21.8 2 24.1-6.7q2.3 4.4 4.7 8.5c-0.5 3.5 3.2 9.6 2.1 14.8-1.1 5.3-5.8 6.5-11 5.4z"/><path class="I" d="m155.4 190.7c-6-14.7-14.2-29.4-22.5-42.4q0.5 0.2 0.9 0.4 0.5 0.2 1 0.4 0.5 0.1 1 0.3 0.5 0.1 1 0.2c4.9 1.1 11.9-0.1 13.4-7.6 2.8-13-5.5-26.5-13.9-36.4q3.1 3 5.9 6.2 2.8 3.2 5.4 6.6 2.6 3.4 4.8 7.1 2.3 3.6 4.3 7.3 0.1 0.4 0.3 0.8 0.1 0.4 0.3 0.8 0.2 0.4 0.4 0.7 0.2 0.4 0.5 0.7 0.8 1.7 1.6 3.5 0.8 1.7 1.5 3.5 0.8 1.8 1.4 3.6 0.6 1.9 1.2 3.7c2.5 11.8 1.7 24.7 0.5 29.9-0.9 5.1-4.3 10-9 10.7z"/><path class="J" d="m128.9 110.7c-1.5 7.3-9.7 10.8-16.1 9.7q-3-3.7-5.7-6.8c-2.7-3.7-5.2-7.1-7.9-10.2q0.1 0 0.1 0 0 0 0-0.1 0 0 0 0 0 0 0-0.1c4-5.1 5.9-9.8 12-10.4 8.1 3.2 19.2 10.2 17.6 17.9z"/><path class="K" d="m150.2 142c-1.5 7.5-8.5 8.7-13.4 7.6q-0.5-0.1-1-0.2-0.5-0.2-1-0.4-0.5-0.1-1-0.3-0.4-0.2-0.9-0.4-2.3-3.6-4.8-7.2-2.4-3.5-4.9-7-2.5-3.5-5.1-6.9-2.6-3.5-5.3-6.8c6.4 1.1 14.6-2.4 16.1-9.7 1.6-7.7-9.5-14.8-17.6-17.9q0.8 0 1.6 0 0.8-0.1 1.6 0 0.8 0.1 1.7 0.2 0.8 0.1 1.6 0.2c4.8 1.1 11.6 5.5 18.6 12.4 8.3 9.8 16.6 23.4 13.8 36.4z"/><path class="L" d="m135.7 225.9c0 0 2.4 0.3 5.2 0.9q-0.1 1.4-0.4 2.9-0.2 1.5-0.5 2.9-0.4 1.4-0.8 2.8-0.4 1.5-0.9 2.8c-5.5 16.9-18.9 31.3-38.7 37.5 12-8.3 20.7-19.4 23.3-27 1.8-5.5 3.1-10.4-8.3-14.3q-3.1-0.9-6.2-1.8-3.2-0.8-6.4-1.4-3.2-0.7-6.4-1.2-3.2-0.6-6.4-0.9c19.1-3.7 36.6-6.5 45.9-3.5q0.1 0.1 0.1 0.1 0.1 0.1 0.2 0.1 0.1 0 0.2 0.1 0 0 0.1 0z"/><path class="M" d="m135.1 225.6c-20.8-7-82.7 16-110.8 11 45.9 1.6 85.2-18.9 113.9-14.9q1.3 1.4 2.8 2.8 0 0.3 0 0.6 0 0.3 0 0.5 0 0.3-0.1 0.6 0 0.3 0 0.6c-2.8-0.6-5.2-0.9-5.2-0.9q-0.1 0-0.1 0-0.1-0.1-0.2-0.1-0.1 0-0.2-0.1 0 0-0.1-0.1z"/><path class="N" d="m90.1 260.7c-3.9 12.1-16 20.6-37.4 13.5q-3-1-6-2-2.9-1.1-5.8-2.3-2.9-1.2-5.8-2.5-2.8-1.3-5.6-2.8-1.3-1.7-2.4-3.5-1-1.9-1.8-3.9-0.8-2-1.2-4.1-0.5-2.1-0.6-4.2 1.9 2.5 4.2 4.6 2.2 2.2 4.8 4.1 2.5 1.8 5.3 3.2 2.8 1.4 5.8 2.4c12 4 18.8-0.1 20.1-4.1 1.3-3.8-3.2-14.9-19.5-22.4 6.2-0.5 12.9-1.6 20-2.9q3.7 0.9 7.5 2.1c13.6 4.6 23.1 11.1 18.4 24.8z"/><path class="O" d="m63.7 259.1c-1.3 4-8.1 8.1-20.1 4.1q-3-1-5.8-2.4-2.8-1.4-5.3-3.2-2.6-1.9-4.8-4.1-2.3-2.1-4.2-4.6-0.1-1.3-0.1-2.5-0.1-1.2-0.1-2.5 0.1-1.2 0.1-2.4 0.1-1.3 0.3-2.5l-1.5-2.5q1.1 0 2.1 0.1c5.5 1 12.3 0.9 19.9 0.1 16.3 7.5 20.8 18.6 19.5 22.4z"/><path class="P" d="m122.9 248.7c-2.6 7.6-11.3 18.7-23.3 27-15.4 5-34.7 5.1-57-2.3q-1.9-0.6-3.7-1.5-1.8-0.9-3.5-2-1.6-1.1-3.1-2.4-1.5-1.3-2.8-2.9 2.8 1.5 5.6 2.8 2.9 1.3 5.8 2.5 2.9 1.2 5.8 2.3 3 1 6 2c21.3 7.1 33.5-1.4 37.4-13.5 4.7-13.7-4.8-20.2-18.4-24.8q-3.8-1.2-7.5-2.1c8.3-1.4 16.7-3.1 25-4.7q3.2 0.4 6.4 0.9 3.2 0.5 6.4 1.2 3.2 0.6 6.4 1.4 3.1 0.9 6.2 1.8c11.4 3.9 10.1 8.8 8.3 14.3z"/><path class="P" d="m71.5 192.5c19 6.3 24.9 19.3 21.7 28.7-0.8 2.6-3.2 5-6.2 7.2-8 1.8-16.3 3.8-24.9 5.3 5.7-2.5 10.8-5.7 12-9.8 5-14.8-5.5-22.4-18.8-26.9-2.1-0.7-4.1-1.4-6.3-2.1q-2.4-0.6-4.8-0.7-2.5-0.1-4.9 0.1-2.4 0.3-4.7 0.9-2.4 0.6-4.6 1.6 1.4-1.1 2.9-2.1 1.5-1 3-1.9 1.6-1 3.2-1.8 1.5-0.9 3.2-1.7c10.7-0.8 21.4 0.6 29 3q0 0.1 0 0.1 0.1 0 0.1 0 0 0 0.1 0.1 0 0 0 0z"/><path class="Q" d="m138.2 221.7c-7.2-1-15-0.4-23.5 0.8 2-1.6 3.7-3.6 4.2-5.4l0.2-0.1c3.7-11.5-17.2-18.1-26.6-21.3q-5-1.6-10-3.4c-10-3.2-20.8-7.8-21.1-7.9q-1.2-0.4-2.2-0.8 2.9-0.5 6-0.7 3-0.2 6.1-0.1 3 0.2 6 0.8 3 0.5 5.9 1.4c39.1 13.2 42.2 23.4 55 36.7z"/><path class="N" d="m55.3 197c13.3 4.5 23.8 12.1 18.8 26.9-1.2 4.1-6.3 7.3-12 9.8q-4.7 0.8-9.4 1.4-4.7 0.6-9.5 1-4.7 0.3-9.4 0.5-4.8 0.1-9.5 0-1.3-0.2-2.2-0.5c-4.7-8.7-6.4-18.7-3.8-26.5 1-3.1 5.2-8.1 11.7-12.8q2.2-1 4.5-1.6 2.4-0.7 4.8-0.9 2.4-0.3 4.9-0.1 2.4 0.1 4.8 0.7c2.2 0.7 4.2 1.4 6.3 2.1z"/><path class="L" d="m82.5 192.3q5 1.8 10 3.4c9.4 3.2 30.3 9.8 26.6 21.3l-0.2 0.1c-0.5 1.8-2.2 3.8-4.2 5.4-8.6 1.4-17.9 3.6-27.7 5.9 3-2.2 5.4-4.6 6.2-7.2 3.2-9.4-2.7-22.4-21.7-28.7q0 0 0-0.1-0.1 0-0.1 0 0 0-0.1 0 0-0.1 0-0.1c-7.6-2.4-18.3-3.8-29-3q2-1 4-1.8 2.1-0.9 4.2-1.6 2.1-0.7 4.3-1.3 2.2-0.5 4.4-1 1 0.4 2.2 0.8c0.3 0.1 11.1 4.7 21.1 7.9z"/><g clip-path="url(#cp1)"><g clip-path="url(#cp2)"><path class="R" d="m153.8 149.3c7.8 2.6 15 6.7 21.2 12 6.2 5.4 11.3 12 15 19.3 3.7 7.3 5.9 15.3 6.5 23.5 0.6 8.2-0.5 16.4-3 24.2q-29.8-9.8-59.4-19.7 9.8-29.7 19.7-59.3zm8.3-24.6c11 3.6 21.2 9.5 30 17.1 8.7 7.6 15.9 16.9 21.1 27.3 5.2 10.4 8.3 21.7 9.1 33.3 0.8 11.6-0.6 23.2-4.3 34.2l-24.5-8.3c2.5-7.8 3.6-16 3-24.2-0.6-8.2-2.8-16.2-6.5-23.5-3.7-7.3-8.8-13.9-15-19.3-6.2-5.3-13.4-9.4-21.2-12q4.2-12.3 8.3-24.6zm31.4 103.6c-2.6 7.8-6.7 15-12.1 21.2-5.4 6.2-11.9 11.3-19.3 15-7.3 3.7-15.3 5.9-23.5 6.5-8.2 0.6-16.5-0.4-24.3-3q9.8-29.7 19.8-59.4 29.6 9.9 59.4 19.7zm24.5 8.3c-3.7 11-9.5 21.2-17.1 30-7.6 8.8-16.9 15.9-27.3 21.1-10.3 5.2-21.7 8.3-33.2 9.1-11.6 0.8-23.2-0.7-34.2-4.4q4-12.1 8.1-24.4c7.8 2.6 16.1 3.6 24.3 3 8.2-0.6 16.2-2.8 23.5-6.5 7.4-3.7 13.9-8.8 19.3-15 5.4-6.2 9.5-13.4 12.1-21.2zm-103.7 31.4c-7.8-2.6-15-6.7-21.2-12.1-6.2-5.4-11.3-12-14.9-19.3-3.7-7.4-5.9-15.4-6.5-23.6-0.6-8.2 0.5-16.4 3-24.2q29.6 9.9 59.4 19.8-10 29.7-19.8 59.4zm-8.1 24.4c-11.1-3.6-21.3-9.4-30.1-17-8.7-7.6-15.9-16.9-21.1-27.3-5.2-10.4-8.3-21.7-9.2-33.3-0.8-11.6 0.7-23.2 4.3-34.2q12.4 4.1 24.7 8.2c-2.6 7.8-3.7 16-3.1 24.2 0.6 8.2 2.8 16.2 6.5 23.6 3.6 7.3 8.7 13.9 14.9 19.3 6.2 5.4 13.4 9.5 21.2 12.1q-4.1 12.3-8.1 24.4zm-31.5-103.6c2.6-7.8 6.8-15 12.1-21.2 5.4-6.2 12-11.3 19.3-14.9 7.3-3.7 15.3-5.9 23.5-6.5 8.2-0.5 16.4 0.5 24.2 3.1q-9.8 29.6-19.7 59.3-29.8-9.9-59.4-19.8zm-24.6-8.2c3.7-11 9.5-21.2 17.2-30 7.6-8.8 16.8-15.9 27.2-21.1 10.4-5.2 21.7-8.3 33.3-9.1 11.6-0.9 23.2 0.6 34.3 4.3q-4.1 12.3-8.3 24.6c-7.8-2.6-16-3.6-24.2-3.1-8.2 0.6-16.2 2.8-23.5 6.5-7.3 3.6-13.9 8.7-19.3 14.9-5.3 6.2-9.5 13.4-12.1 21.2q-12.2-4.1-24.6-8.2z"/></g><g clip-path="url(#cp3)"><path class="S" d="m29.5 198.4c7.8 2.6 15 6.7 21.2 12.1 6.2 5.4 11.3 11.9 14.9 19.3 3.7 7.3 5.9 15.3 6.5 23.5 0.6 8.2-0.5 16.4-3.1 24.2q-29.7-9.8-59.3-19.7 9.8-29.7 19.8-59.4zm8.1-24.5c11 3.6 21.2 9.4 30 17.1 8.8 7.6 16 16.8 21.2 27.2 5.2 10.4 8.3 21.7 9.1 33.3 0.8 11.6-0.6 23.2-4.3 34.2q-12.3-4-24.6-8.2c2.6-7.8 3.6-16 3.1-24.2-0.6-8.2-2.8-16.2-6.5-23.5-3.6-7.4-8.7-13.9-14.9-19.3-6.2-5.4-13.4-9.5-21.2-12.1q4-12.3 8.1-24.5zm31.4 103.6c-2.6 7.8-6.7 15-12.1 21.2-5.4 6.2-11.9 11.3-19.3 15-7.3 3.7-15.3 5.9-23.5 6.5-8.2 0.5-16.5-0.5-24.3-3.1q10-29.7 19.9-59.3 29.6 9.9 59.3 19.7zm24.6 8.2c-3.6 11.1-9.4 21.2-17.1 30-7.6 8.8-16.8 16-27.2 21.2-10.4 5.2-21.8 8.3-33.3 9.1-11.6 0.8-23.3-0.7-34.3-4.4q4.2-12.2 8.1-24.5c7.8 2.6 16.1 3.6 24.3 3.1 8.2-0.6 16.2-2.8 23.5-6.5 7.4-3.7 13.9-8.8 19.3-15 5.4-6.2 9.5-13.4 12.1-21.2q12.3 4.1 24.6 8.2zm-103.8 31.4c-7.8-2.6-15-6.7-21.2-12.1-6.2-5.4-11.2-11.9-14.9-19.3-3.7-7.3-5.9-15.3-6.4-23.5-0.6-8.2 0.4-16.4 3-24.2q29.7 9.8 59.4 19.8-9.9 29.6-19.9 59.3zm-8.1 24.5c-46.3-15.3-71.4-65.5-56-111.8q12.4 4 24.6 8.2c-2.6 7.8-3.6 16-3 24.2 0.5 8.2 2.7 16.2 6.4 23.5 3.7 7.4 8.7 13.9 14.9 19.3 6.2 5.4 13.4 9.5 21.2 12.1q-3.9 12.3-8.1 24.5zm-31.4-103.6c2.6-7.8 6.7-15 12.1-21.2 5.4-6.2 11.9-11.3 19.3-15 7.4-3.7 15.4-5.9 23.6-6.5 8.2-0.5 16.4 0.5 24.2 3.1q-10 29.7-19.8 59.4-29.7-10-59.4-19.8zm-24.6-8.2c3.7-11 9.5-21.2 17.1-30 7.6-8.8 16.9-16 27.3-21.1 10.4-5.2 21.7-8.3 33.3-9.1 11.6-0.9 23.2 0.6 34.2 4.3q-4.1 12.2-8.1 24.5c-7.8-2.6-16-3.6-24.2-3.1-8.2 0.6-16.2 2.8-23.6 6.5-7.4 3.7-13.9 8.8-19.3 15-5.4 6.2-9.5 13.4-12.1 21.2q-12.2-4.2-24.6-8.2z"/></g></g><path class="T" d="m15.5 79.8c9.9 3.7 12.2-3.6 13.5-6.8q0-0.1 0.1-0.2 0-0.2 0-0.3 0.1-0.1 0.1-0.2 0.1-0.2 0.1-0.3c0.5 6.1 2.5 11.2 3.5 15.9q-0.5 0.1-0.9 0.3-0.5 0.2-1 0.4-0.4 0.2-0.9 0.5-0.4 0.2-0.8 0.4-1.8 0.5-3.5 0.7-1.8 0.2-3.6 0.1-1.8-0.1-3.5-0.5-1.8-0.3-3.4-0.9c-13.1-5-11.8-21.2-10.7-24.2 0 0 0.5-0.9 1.2-2.2-1.1 8.8 3.6 15 9.8 17.3z"/><path class="U" d="m36 86.9q-0.4 0.1-0.8 0.2-0.4 0.1-0.8 0.2-0.4 0.1-0.8 0.3-0.4 0.1-0.8 0.2c-1.7-7.9-6.4-16.9-1.3-30.5q0.6-1.5 1.2-2.9 0.6-1.4 1.3-2.8 0.6-1.4 1.4-2.7 0.7-1.4 1.5-2.7l0.3-0.2c-1.6 4-3.2 7.9-4.7 11.8-3.4 9.2 0.2 21.1 3.5 29.1z"/><path class="V" d="m27.3 45.7q0.1-0.3 0.2-0.5 0.2-0.3 0.3-0.6 0.2-0.2 0.3-0.5 0.2-0.2 0.3-0.5 0.7-0.1 1.3-0.1 0.7 0 1.3 0 0.6 0.1 1.3 0.2 0.6 0.2 1.2 0.4 0.5 0.2 0.9 0.4 0.5 0.2 0.9 0.5 0.4 0.3 0.8 0.6 0.4 0.3 0.8 0.6-0.5 0.8-0.9 1.6-0.5 0.8-0.9 1.6-0.4 0.9-0.9 1.7-0.4 0.8-0.7 1.7-0.5 0-0.9 0-0.4 0-0.8-0.1-0.4 0-0.8-0.1-0.4-0.1-0.8-0.3c-2.7-0.9-4.1-3.5-2.9-6.6z"/><path class="W" d="m18.5 63.3c3.1 1.1 8.3 0.2 12.2-3.6q-0.4 1.5-0.8 3-0.3 1.5-0.5 3.1-0.1 1.5-0.2 3.1 0 1.5 0.1 3.1 0 0.1-0.1 0.3 0 0.1-0.1 0.2 0 0.1 0 0.3-0.1 0.1-0.1 0.2c-1.3 3.2-3.6 10.5-13.5 6.8-6.2-2.3-10.9-8.5-9.8-17.3 1.1-1.7 2.4-4.1 2.4-4.1q0.9-1.4 2-2.8 1.1-1.4 2.3-2.6 1.1-1.3 2.5-2.4 1.3-1.2 2.7-2.2-0.4 0.5-0.7 1.1-0.3 0.5-0.6 1.1-0.3 0.6-0.5 1.1-0.3 0.6-0.5 1.2c-2.1 5.8 0.1 9.1 3.2 10.4z"/><path class="X" d="m28.4 43.6q-0.1 0.3-0.3 0.5-0.1 0.3-0.3 0.5-0.1 0.3-0.3 0.6-0.1 0.2-0.2 0.5c-1.2 3.1 0.2 5.7 2.9 6.6q0.4 0.2 0.8 0.3 0.4 0.1 0.8 0.1 0.4 0.1 0.8 0.1 0.4 0 0.8 0-1 2.2-1.9 4.5l-0.8 2.4c-3.9 3.8-9.1 4.7-12.2 3.6-3.1-1.3-5.3-4.6-3.2-10.4q0.2-0.6 0.5-1.1 0.2-0.6 0.5-1.2 0.3-0.6 0.6-1.1 0.3-0.6 0.6-1.1 1.2-0.9 2.5-1.7 1.3-0.8 2.7-1.4 1.4-0.6 2.8-1 1.4-0.4 2.9-0.7z"/><path class="Y" d="m31.6 67.5q-0.1 0-0.1-0.1-0.1 0-0.2 0 0 0-0.1-0.1 0 0-0.1 0 0-1.2 0-2.4 0.1-1.2 0.2-2.4 0.2-1.2 0.5-2.4 0.3-1.2 0.7-2.3c1.5-3.9 3.1-7.8 4.7-11.8q0.8-0.6 1.7-1 0.8-0.5 1.8-0.8 0.9-0.3 1.8-0.5 1-0.2 2-0.3c0.9 4.5 0.7 10.5-2 17.8-2.1 5.5-5.5 8.3-10.9 6.3z"/><path class="Z" d="m52.7 71.5c-4.6 12.3-10.9 13.8-16.7 15.4q-0.6-1.5-1.1-2.9-0.6-1.5-1.1-3-0.5-1.5-0.9-3-0.4-1.5-0.8-3c1.8 2.1 3.4 4 4.2 4.3 5.8 2.2 11.9-6.2 14.1-12.2 2.3-6.3 3.1-16 0.7-22.7 7.7 4.3 4.1 20.4 1.6 27.1z"/><path class="a0" d="m36.3 79.3c-0.8-0.3-2.4-2.2-4.2-4.3q-0.2-1-0.4-1.9-0.1-1-0.3-2-0.1-0.9-0.2-1.9 0-1-0.1-1.9 0.1 0 0.1 0 0.1 0.1 0.2 0.1 0 0 0.1 0 0 0 0.1 0.1c5.4 2 8.8-0.8 10.9-6.3 2.7-7.3 2.9-13.3 2-17.8q0.7-0.1 1.4-0.1 0.7-0.1 1.4 0 0.7 0.1 1.4 0.2 0.7 0.2 1.3 0.4 0.2 0 0.3 0.1 0.2 0 0.3 0.1 0.1 0 0.3 0.1 0.1 0.1 0.2 0.2c2.5 6.7 1.6 16.4-0.7 22.7-2.2 6-8.3 14.4-14.1 12.2z"/><path class="x" d="m312.1 324.9q0.6 0.8 1.4 1.5 0.8 0.6 1.8 0.9 1 0.4 2 0.4 1 0.1 2-0.2c12.7-3.8 24.4-24.3 27.5-43.3-1.4 21.2-10.5 48.7-25 53.1-2.7 0.8-5.3 0.8-7.2-0.8q-1-0.9-2-1.8-0.2-1.2-0.3-2.4-0.1-1.2-0.1-2.5-0.1-1.2-0.1-2.4 0-1.3 0-2.5z"/><path class="y" d="m312.6 334.7q-2.3-1.8-4.5-3.4c-3.1-21.9 7.3-36.1 4.5-62.3 3.7 25.6-2.3 49.5 0 65.7z"/><path class="z" d="m268.9 290.6c-3.1-10.6 6-25.7 16.5-37.1q0.8-0.6 1.7-1.2 0.9-0.6 1.8-1.1 0.9-0.5 1.9-0.9 0.9-0.5 1.9-0.9 1-0.3 2.1-0.5 1-0.2 2.1-0.3 1.1-0.1 2.1-0.1 1.1 0 2.2 0.2c-21 10-18.8 31.7-17.4 36.6 2.4 7.9 10.2 16.1 18.6 13.6 4-1.3 7.4-4.5 9.6-7.5-1 7.5-2.7 14.1-3.7 21.1-12.6-11.5-34.5-5.5-39.4-21.9z"/><path class="A" d="m285.4 253.5c-10.5 11.4-19.6 26.5-16.5 37.1 4.9 16.4 26.8 10.4 39.4 21.9q-0.3 2.3-0.5 4.7-0.2 2.3-0.2 4.7 0 2.4 0.1 4.7 0.1 2.4 0.4 4.7c-25-18.5-34.3-6.2-42.3-32.9-6.2-21.1 9-37.4 19.6-44.9z"/><path class="B" d="m297.5 268.9c-2.3-7.5 1.8-15.1 5.1-20q0.7 0.2 1.4 0.3 0.7 0.2 1.4 0.4 0.7 0.1 1.4 0.4 0.7 0.2 1.3 0.4 0.8 2.3 1.3 4.5 0.5 1.7 1 3.5 0.5 1.7 0.9 3.5 0.4 1.7 0.7 3.5 0.3 1.8 0.6 3.6 0 0.2 0 0.4 0 0.2 0 0.4 0.1 0.2 0.1 0.4 0 0.2 0.1 0.4-0.6 1-1.3 1.9-0.8 0.9-1.6 1.7-0.8 0.8-1.8 1.5-0.9 0.6-2 1.2c-1.9 0.5-7.1-2.6-8.6-8z"/><path class="C" d="m283.8 285.3c-1.4-4.9-3.6-26.6 17.4-36.6q0.1 0 0.3 0 0.2 0.1 0.4 0.1 0.2 0 0.3 0.1 0.2 0 0.4 0c-3.3 4.9-7.4 12.5-5.1 20 1.5 5.4 6.7 8.5 8.6 8q1.1-0.6 2-1.2 1-0.7 1.8-1.5 0.8-0.8 1.6-1.7 0.7-0.9 1.3-1.9 0.2 2.6 0.2 5.2 0.1 2.6 0 5.3-0.1 2.6-0.3 5.1-0.3 2.6-0.7 5.2c-2.2 3-5.6 6.2-9.6 7.5-8.4 2.5-16.2-5.7-18.6-13.6z"/><path class="A" d="m346.2 268.3c-3.5 11.7-10.5 23.1-18.5 25.5-5.6 1.8-10 2-14-0.1q0.1-3.1 0.1-6.2 0-3.1-0.1-6.2-0.2-3.1-0.4-6.1-0.3-3.1-0.7-6.2-0.3-2.1-0.6-4.5c5.1 8 13.9 7.7 14.9 7.4q0.4-0.1 0.7-0.2 0.3-0.1 0.6-0.2 0.4-0.1 0.7-0.2 0.3-0.1 0.6-0.2c4.1-1.2 9.3-8.6 9.9-17.1q1 1.3 1.9 2.6 0.9 1.4 1.7 2.8 0.7 1.4 1.3 2.9 0.7 1.5 1.1 3.1 0.2 0.3 0.3 0.7 0.1 0.4 0.2 0.7 0.1 0.4 0.2 0.7 0 0.4 0.1 0.8z"/><path class="C" d="m329.5 271.1q-0.3 0.1-0.6 0.2-0.3 0.1-0.6 0.2-0.4 0.1-0.7 0.2-0.3 0.1-0.6 0.2c-1.1 0.3-9.9 0.6-15-7.4q-0.3-1.7-0.6-3.5-0.4-1.8-0.8-3.5-0.4-1.8-0.9-3.5-0.5-1.7-1-3.5c2.8-2.5 6.3-4.7 8.7-5.4 7.9-2.3 16.2 2 22 8.9-0.6 8.5-5.8 15.9-9.9 17.1z"/><path class="D" d="m319.3 327.5q-1 0.3-2 0.2-1 0-2-0.4-1-0.3-1.8-0.9-0.8-0.7-1.4-1.5c0-9.1 1.3-19.7 1.6-31.2 4 2.1 8.4 1.9 14 0.1 8-2.4 15-13.8 18.5-25.5q0.3 2 0.5 4 0.2 1.9 0.3 3.9 0.1 2 0 4 0 2-0.2 4c-3.1 19-14.8 39.5-27.5 43.3z"/><path class="A" d="m273.2 354.6l-7.4-0.1c0.8-3.7-2-7.8-5.4-10-3.6-2.5-13-6.9-22.7-8.6q3.2 0.2 6.3 0.9 3.2 0.6 6.2 1.6 3 1 5.9 2.3 2.9 1.4 5.7 3.1c2.4 1.6 9.4 6.7 11.4 10.8z"/><path class="E" d="m214.3 384.9c-6.1 9.3-13.7 11.2-21.6 7.8-7.1-5.8-12.1-13.1-10.1-20.8 2.8-1.2 6.3-2.7 10.4-4.1 7.2-1.9 15.4-3.4 23.8-4.9 2.8 6.1 2.7 14.3-2.5 22z"/><path class="F" d="m182.6 371.9q0.1-0.2 0.1-0.4 0.1-0.1 0.1-0.3 0.1-0.1 0.1-0.3 0.1-0.1 0.1-0.2 4.6-1.5 10-2.9c-4.1 1.4-7.6 2.9-10.4 4.1z"/><path class="F" d="m273.6 357.2c-23 0.3-56.9 4.6-80.6 10.6 19.3-6.7 51.6-14.2 80.2-13.2q0.1 0.3 0.2 0.6 0.2 0.3 0.2 0.6 0.1 0.4 0.1 0.7 0 0.3-0.1 0.7z"/><path class="G" d="m232.3 380.4c-7.9 11.9-19.4 17.1-32.5 17.1q-0.3-0.1-0.5-0.3-0.3-0.1-0.6-0.3-0.3-0.1-0.5-0.3-0.3-0.1-0.6-0.3-2.4-1.7-4.9-3.6c7.9 3.4 15.5 1.5 21.6-7.7 5.2-7.8 5.3-16 2.5-22.1 5.8-1 11.8-1.9 17.7-2.7 5.9 4.5 1.6 14.6-2.2 20.2z"/><path class="C" d="m273.3 358c-7.4 11.1-31.3 34.3-53 40.5 17.8-7.2 31.9-22.4 34.6-26.4 2.4-3.7 2.8-7.6-0.8-9.9-3.6-2.5-9.2-1.5-11.8-2.8 11.3-1.2 22.3-2.1 31.3-2.2q0 0.1 0 0.2 0 0.1-0.1 0.2 0 0.1-0.1 0.2 0 0.1-0.1 0.2z"/><path class="H" d="m254.9 372.1c-2.7 4-16.8 19.2-34.6 26.4-7.3 2-14.3 2-20.5-1 13.1 0 24.6-5.1 32.5-17.1 3.8-5.6 8.1-15.7 2.2-20.2l7.8-0.8c2.6 1.3 8.2 0.3 11.8 2.8 3.6 2.3 3.2 6.2 0.8 9.9z"/><path class="I" d="m265.8 354.5q-4.9 0.1-9.8 0.4-4.8 0.3-9.7 0.9-4.8 0.5-9.6 1.2-4.9 0.8-9.6 1.8 0.3-0.3 0.6-0.6 0.3-0.3 0.5-0.7 0.3-0.3 0.5-0.6 0.3-0.4 0.5-0.7c2.3-3.4 3.5-9-1.7-12.4-9-6-21.8-3.9-31.6-0.5q3.1-1.4 6.4-2.6 3.3-1.1 6.6-2 3.3-0.9 6.7-1.5 3.5-0.6 6.9-1 0.3 0 0.7 0 0.3 0 0.6 0 0.4-0.1 0.7-0.1 0.3-0.1 0.7-0.2 1.5-0.1 3.1-0.2 1.6 0 3.1 0 1.6 0 3.1 0.1 1.6 0 3.2 0.1c9.7 1.7 19.1 6.1 22.7 8.6 3.4 2.2 6.2 6.3 5.4 10z"/><path class="J" d="m197.5 350.5c5 3.3 5.2 10.6 2.4 15q-3.6 1.2-6.9 2.3-5.3 1.3-10 2.9v-0.2c-2.7-4.4-5.7-7.3-4.3-12.1 4.8-5.1 13.5-11.4 18.8-7.9z"/><path class="K" d="m227.5 343.8c5.3 3.4 4 9 1.7 12.4q-0.2 0.4-0.5 0.7-0.2 0.3-0.5 0.7-0.2 0.3-0.5 0.6-0.3 0.3-0.6 0.6c-10 2-19.3 4.3-27.2 6.7 2.8-4.4 2.6-11.7-2.4-15-5.3-3.5-14 2.8-18.8 7.9q0.2-0.6 0.5-1.2 0.2-0.7 0.5-1.2 0.3-0.6 0.6-1.2 0.3-0.6 0.7-1.1c2.3-3.4 7.7-7.2 14.9-10.4 9.8-3.4 22.6-5.5 31.6 0.5z"/></svg>