<svg xmlns="http://www.w3.org/2000/svg" width="27.257" height="24" viewBox="0 0 27.257 24">
  <g id="comments" transform="translate(0 -30.536)">
    <g id="Speech_Bubble_48_" transform="translate(0 30.536)">
      <g id="Group_353" data-name="Group 353" transform="translate(0 0)">
        <path id="Path_486" data-name="Path 486" d="M3.967,54.536H2.036L3.4,53.17a4.622,4.622,0,0,0,1.32-2.733A10.409,10.409,0,0,1,.643,45.615a9.445,9.445,0,0,1-.273-6.052,11.849,11.849,0,0,1,4.54-6.339,14.835,14.835,0,0,1,8.764-2.687c4.156,0,7.659,1.194,10.131,3.453A10.365,10.365,0,0,1,26.39,45.863,10.662,10.662,0,0,1,23.8,49.469a14.659,14.659,0,0,1-10.124,3.467,18.421,18.421,0,0,1-4.582-.583,7.157,7.157,0,0,1-5.125,2.183Zm9.707-22.4C7.059,32.136,3,36.081,1.911,39.991c-1.028,3.695.488,7.186,4.056,9.339l.4.241-.012.465a6.3,6.3,0,0,1-.637,2.611,5.667,5.667,0,0,0,2.506-1.715l.338-.4.5.15a16.548,16.548,0,0,0,4.612.653c8.233,0,11.983-4.985,11.983-9.617a8.8,8.8,0,0,0-2.932-6.549,13.135,13.135,0,0,0-9.051-3.034Z" transform="translate(0 -30.536)" fill="#607eaa"/>
      </g>
    </g>
  </g>
</svg>
