<svg id="author" xmlns="http://www.w3.org/2000/svg" width="20.023" height="24" viewBox="0 0 20.023 24">
  <path id="Path_484" data-name="Path 484" d="M92.82,11.539a5.61,5.61,0,0,0,4.093-1.69,5.574,5.574,0,0,0,1.7-4.079,5.574,5.574,0,0,0-1.7-4.079,5.8,5.8,0,0,0-8.185,0,5.574,5.574,0,0,0-1.7,4.079,5.574,5.574,0,0,0,1.7,4.08A5.612,5.612,0,0,0,92.82,11.539Zm-3.1-8.856a4.389,4.389,0,0,1,6.194,0A4.165,4.165,0,0,1,97.2,5.769a4.164,4.164,0,0,1-1.283,3.087,4.388,4.388,0,0,1-6.194,0A4.164,4.164,0,0,1,88.44,5.769,4.164,4.164,0,0,1,89.723,2.683Zm0,0" transform="translate(-82.959)" fill="#607eaa"/>
  <path id="Path_485" data-name="Path 485" d="M19.975,254.165a14.227,14.227,0,0,0-.194-1.514,11.907,11.907,0,0,0-.373-1.522,7.511,7.511,0,0,0-.627-1.419,5.351,5.351,0,0,0-.945-1.229,4.169,4.169,0,0,0-1.358-.852,4.7,4.7,0,0,0-1.733-.313,1.761,1.761,0,0,0-.94.4c-.282.183-.611.4-.979.63a5.612,5.612,0,0,1-1.266.557,4.926,4.926,0,0,1-3.1,0,5.6,5.6,0,0,1-1.265-.557c-.364-.232-.694-.444-.98-.63a1.76,1.76,0,0,0-.939-.4,4.694,4.694,0,0,0-1.733.313,4.165,4.165,0,0,0-1.358.851,5.352,5.352,0,0,0-.945,1.229,7.524,7.524,0,0,0-.627,1.42,11.935,11.935,0,0,0-.373,1.522,14.13,14.13,0,0,0-.194,1.514c-.032.457-.048.934-.048,1.415a3.974,3.974,0,0,0,1.184,3.009,4.265,4.265,0,0,0,3.05,1.11H15.79a4.266,4.266,0,0,0,3.05-1.11,3.972,3.972,0,0,0,1.184-3.01C20.023,255.1,20.007,254.622,19.975,254.165Zm-2.1,3.407a2.872,2.872,0,0,1-2.08.724H4.234a2.872,2.872,0,0,1-2.08-.723,2.6,2.6,0,0,1-.747-1.992c0-.449.015-.892.044-1.318a12.744,12.744,0,0,1,.176-1.363,10.527,10.527,0,0,1,.328-1.342,6.126,6.126,0,0,1,.51-1.154,3.967,3.967,0,0,1,.695-.909,2.765,2.765,0,0,1,.9-.561,3.242,3.242,0,0,1,1.108-.213c.049.026.137.076.279.169.289.188.622.4.991.637a6.976,6.976,0,0,0,1.59.709,6.334,6.334,0,0,0,3.963,0,6.984,6.984,0,0,0,1.59-.709c.377-.241.7-.449.99-.637.142-.092.23-.142.279-.169a3.244,3.244,0,0,1,1.108.213,2.769,2.769,0,0,1,.9.561,3.956,3.956,0,0,1,.695.909,6.1,6.1,0,0,1,.51,1.154A10.5,10.5,0,0,1,18.4,252.9a12.851,12.851,0,0,1,.176,1.364h0c.03.424.045.867.045,1.317A2.6,2.6,0,0,1,17.87,257.573Zm0,0" transform="translate(0 -235.7)" fill="#607eaa"/>
</svg>
