<svg xmlns="http://www.w3.org/2000/svg" width="49.373" height="34.834"><g data-name="Group 330"><g data-name="Group 329" fill="#EFF4FE"><path data-name="Path 482" d="M9.216 22.754a27.9 27.9 0 0 1-5.085 8.032 2.428 2.428 0 0 0-.23 2.929 2.383 2.383 0 0 0 2.041 1.119 2.008 2.008 0 0 0 .691-.1c4.838-1.415 16.145-6.435 16.458-22.531A11.86 11.86 0 0 0 12.755.059 11.537 11.537 0 0 0 0 11.546a11.407 11.407 0 0 0 9.216 11.208Z"/><path data-name="Path 483" d="M39.021.059a11.535 11.535 0 0 0-12.738 11.487 11.407 11.407 0 0 0 9.216 11.208 27.907 27.907 0 0 1-5.086 8.032 2.427 2.427 0 0 0-.23 2.929 2.383 2.383 0 0 0 2.041 1.119 2.008 2.008 0 0 0 .691-.1c4.839-1.415 16.145-6.435 16.458-22.531v-.23A11.848 11.848 0 0 0 39.021.059Z"/></g></g></svg>