<svg xmlns="http://www.w3.org/2000/svg" width="177.515" height="150.915" viewBox="0 0 177.515 150.915">
  <g id="Group_1009" data-name="Group 1009" transform="translate(22.118) rotate(11)">
    <path id="Path_28657" data-name="Path 28657" d="M16.61,9.572c-5.041,1.26-8.822,3.781-13.863,6.3s-2.521,7.561,2.52,3.781l12.6-7.562C26.692,8.311,32.993,4.531,39.295,2.01,51.057-3.871,25.432,4.531,16.61,9.572Z" transform="translate(71.606 38.293)" fill="#7781cb"/>
    <path id="Path_28731" data-name="Path 28731" d="M143.667,49.149c3.781-5.041,7.561-10.082,10.082-16.383Q163.831,13.863,157.53,0a30.958,30.958,0,0,1-2.52,11.342C115.942,86.956,37.807,69.313,0,78.135q0,1.26,2.52,3.781A30.809,30.809,0,0,0,16.383,93.257c42.848,21.424,119.722-28.985,127.284-44.108Z" transform="translate(1.26 23.92)" fill="#abb0de"/>
    <path id="Path_28732" data-name="Path 28732" d="M156.269,32.766a30.957,30.957,0,0,0,2.52-11.342q-5.041-12.6-21.424-20.164A5.134,5.134,0,0,0,133.585,0c5.041,5.041,2.52,12.6-2.521,20.164C108.38,64.272,17.643,97.038,0,95.778a9.672,9.672,0,0,0,1.26,3.781C39.067,90.737,117.2,108.38,156.269,32.766Z" transform="translate(0 2.496)" fill="#dfe3f1"/>
    <path id="Path_28733" data-name="Path 28733" d="M0,97.015v1.26c17.643,1.26,108.38-31.506,131.065-75.614,5.041-7.561,7.561-15.123,2.52-20.164-15.123-6.3-34.026,0-52.93,11.342A14.22,14.22,0,0,1,90.737,15.1c6.3,3.781,7.561,7.561,5.041,12.6-2.52,2.52-3.781,5.041-5.041,8.822C81.915,54.166,28.985,83.152,6.3,93.234c2.52-3.781,5.041-6.3,6.3-8.822,17.643-20.164,31.506-39.067,44.108-51.67-11.342,8.822-20.164,18.9-28.985,27.725C16.383,74.33,6.3,88.193,0,97.014Z" transform="translate(0 0)" fill="#eaeff6"/>
    <path id="Path_28774" data-name="Path 28774" d="M74.354.42a124.562,124.562,0,0,0-23.944,18.9C37.807,31.926,23.944,50.83,6.3,70.993c-1.26,2.52-3.781,5.041-6.3,8.822C22.684,69.733,75.614,40.748,84.436,23.1c1.26-3.781,2.521-6.3,5.041-8.822,2.52-5.041,1.26-8.822-5.041-12.6A14.221,14.221,0,0,0,74.354.42Z" transform="translate(6.301 13.418)" fill="#eaedf6"/>
  </g>
</svg>
