<svg xmlns="http://www.w3.org/2000/svg" width="108.825" height="84.515" viewBox="0 0 108.825 84.515">
  <g id="Group_1008" data-name="Group 1008" transform="matrix(0.998, -0.07, 0.07, 0.998, 0, 6.111)" opacity="0.82">
    <path id="Path_28657" data-name="Path 28657" d="M10.673,6.151C7.434,6.961,5,8.58,1.766,10.2s-1.62,4.859,1.62,2.429l8.1-4.859C17.152,5.341,21.2,2.911,25.25,1.292,32.808-2.487,16.342,2.911,10.673,6.151Z" transform="translate(46.012 24.606)" fill="#7781cb"/>
    <path id="Path_28731" data-name="Path 28731" d="M92.316,31.582a45.911,45.911,0,0,0,6.478-10.527Q105.273,8.908,101.224,0A19.893,19.893,0,0,1,99.6,7.288C74.5,55.876,24.294,44.539,0,50.207q0,.81,1.62,2.429a19.8,19.8,0,0,0,8.908,7.288C38.06,73.691,87.458,41.3,92.316,31.582Z" transform="translate(0.81 15.371)" fill="#abb0de"/>
    <path id="Path_28732" data-name="Path 28732" d="M100.414,21.055a19.892,19.892,0,0,0,1.62-7.288Q98.795,5.669,88.267.81A3.3,3.3,0,0,0,85.838,0c3.239,3.239,1.62,8.1-1.62,12.957C69.642,41.3,11.337,62.354,0,61.544a6.215,6.215,0,0,0,.81,2.429C25.1,58.305,75.311,69.642,100.414,21.055Z" transform="translate(0 1.604)" fill="#dfe3f1"/>
    <path id="Path_28733" data-name="Path 28733" d="M0,62.339v.81c11.337.81,69.642-20.245,84.218-48.588C87.458,9.7,89.077,4.844,85.838,1.6c-9.718-4.049-21.864,0-34.011,7.288a9.138,9.138,0,0,1,6.478.81c4.049,2.429,4.859,4.859,3.239,8.1a13.052,13.052,0,0,0-3.239,5.669C52.636,34.806,18.625,53.431,4.049,59.909,5.669,57.48,7.288,55.86,8.1,54.241c11.337-12.957,20.245-25.1,28.343-33.2-7.288,5.669-12.957,12.147-18.625,17.815C10.527,47.763,4.049,56.67,0,62.339Z" transform="translate(0 0)" fill="#eaeff6"/>
    <path id="Path_28774" data-name="Path 28774" d="M47.778.27A80.04,80.04,0,0,0,32.392,12.417c-8.1,8.1-17.006,20.245-28.343,33.2C3.239,47.238,1.62,48.857,0,51.287c14.576-6.478,48.588-25.1,54.256-36.441A13.051,13.051,0,0,1,57.5,9.178c1.62-3.239.81-5.669-3.239-8.1A9.138,9.138,0,0,0,47.778.27Z" transform="translate(4.049 8.622)" fill="#eaedf6"/>
  </g>
</svg>
